<?xml version="1.0" encoding="UTF-8"?>
<svg version="1.1" xmlns="http://www.w3.org/2000/svg" width="512" height="512">
<path d="M0 0 C1.41952217 -0.01058945 1.41952217 -0.01058945 2.86772156 -0.02139282 C42.38370862 -0.24928599 42.38370862 -0.24928599 58.8671875 3.203125 C59.84204102 3.40180176 60.81689453 3.60047852 61.82128906 3.80517578 C110.2031649 13.92579694 154.19147019 35.8423127 189.8671875 70.203125 C190.8562207 71.15131104 190.8562207 71.15131104 191.86523438 72.11865234 C201.3464952 81.25635791 210.12909319 90.54108282 217.8671875 101.203125 C218.31175293 101.81349609 218.75631836 102.42386719 219.21435547 103.05273438 C227.21348644 114.07617084 227.21348644 114.07617084 228.95239258 117.07397461 C231.19779484 120.74291691 232.90728275 122.56575 237.08203125 123.83984375 C238.650011 124.21705263 240.22479677 124.56690861 241.8046875 124.890625 C250.5978609 126.83103816 256.45323459 129.59432632 261.8671875 137.203125 C265.06323653 142.90487646 265.0567421 148.03933282 264.58203125 154.46875 C264.57257736 157.34340082 264.57257736 157.34340082 266.87109375 159 C269.538287 161.94382973 269.37610905 163.78213465 269.19970703 167.64794922 C268.46323284 173.30722886 266.61058851 178.68921062 264.91210938 184.11914062 C263.21785938 189.84769885 262.62566524 194.30471796 263.8671875 200.203125 C264.1839634 202.10736654 264.49608168 204.01238609 264.8046875 205.91796875 C265.33465748 209.03648612 265.86951191 212.15412513 266.40625 215.27148438 C266.66535156 216.79805664 266.66535156 216.79805664 266.9296875 218.35546875 C267.08566406 219.26288818 267.24164063 220.17030762 267.40234375 221.10522461 C268.50782686 228.47259601 269.04065004 235.71125884 269.10546875 243.16015625 C269.1152626 244.09287857 269.12505646 245.02560089 269.13514709 245.98658752 C269.3077864 266.70405604 269.17147346 286.8431692 264.8671875 307.203125 C264.64756348 308.24500977 264.42793945 309.28689453 264.20166016 310.36035156 C254.10403965 356.65361811 231.74489992 399.06726221 198.8671875 433.203125 C198.23506348 433.86248047 197.60293945 434.52183594 196.95166016 435.20117188 C187.80721271 444.68942805 178.50984741 453.4293294 167.8671875 461.203125 C166.71613733 462.06118652 165.56509573 462.91925951 164.4140625 463.77734375 C156.22442769 469.81489896 147.72180474 475.19769802 138.8671875 480.203125 C138.15997559 480.6053125 137.45276367 481.0075 136.72412109 481.421875 C110.57718959 496.1428217 81.55524327 505.84377758 51.8671875 510.203125 C50.66473389 510.37972656 49.46228027 510.55632812 48.22338867 510.73828125 C36.50692905 512.3422685 24.86816586 512.60275844 13.0546875 512.578125 C12.06884674 512.57758118 11.08300598 512.57703735 10.06729126 512.57647705 C-6.30221924 512.53511191 -22.06321092 511.5606066 -38.1328125 508.203125 C-39.65793457 507.88964111 -39.65793457 507.88964111 -41.21386719 507.56982422 C-69.444456 501.57048705 -96.29410041 490.72268444 -120.98046875 475.8203125 C-121.63128418 475.42972656 -122.28209961 475.03914063 -122.95263672 474.63671875 C-125.1328125 473.203125 -125.1328125 473.203125 -127.70751953 471.14453125 C-136.30357331 464.56790033 -143.54222146 464.16428167 -153.8828125 464.453125 C-173.3615504 464.80226812 -173.3615504 464.80226812 -179.63525391 458.75488281 C-184.11710797 453.68788452 -185.38133254 450.29882114 -185.125 443.59375 C-184.83312419 427.79145707 -184.99197784 416.97726458 -196.44677734 405.09033203 C-199.50570971 401.66641845 -201.85079856 397.78717241 -204.2578125 393.890625 C-205.00454224 392.68962158 -205.00454224 392.68962158 -205.76635742 391.46435547 C-230.95627918 350.43640956 -243.62807142 304.57384128 -243.4453125 256.578125 C-243.44315735 255.56021881 -243.4410022 254.54231262 -243.43878174 253.49356079 C-243.38911104 238.88448977 -243.13821441 224.55236647 -240.1328125 210.203125 C-239.93413574 209.22827148 -239.73545898 208.25341797 -239.53076172 207.24902344 C-230.9555505 166.25501743 -214.1693744 127.43008704 -187.1328125 95.203125 C-187.9371875 94.914375 -188.7415625 94.625625 -189.5703125 94.328125 C-192.1328125 93.203125 -192.1328125 93.203125 -193.1328125 91.203125 C-193.25562582 88.75746523 -193.32112691 86.34131478 -193.3359375 83.89453125 C-193.34163757 83.17200668 -193.34733765 82.44948212 -193.35321045 81.70506287 C-193.36265968 80.17603012 -193.36919413 78.64697701 -193.37304688 77.11791992 C-193.38276062 74.77812259 -193.41378627 72.43920077 -193.4453125 70.09960938 C-193.45184187 68.61458855 -193.4570926 67.12956145 -193.4609375 65.64453125 C-193.4732843 64.9444545 -193.4856311 64.24437775 -193.49835205 63.52308655 C-193.48505552 60.62549111 -193.45719935 58.67161222 -191.78027344 56.24975586 C-189.51306544 54.80940009 -187.76053943 54.99006606 -185.1328125 55.203125 C-185.17921875 54.501875 -185.225625 53.800625 -185.2734375 53.078125 C-185.52353632 46.50409881 -185.08021814 41.60685505 -181.1328125 36.203125 C-176.37050526 31.67893312 -172.68867375 29.93935549 -166.13696289 30.04296875 C-164.92371841 30.05537598 -163.71047394 30.0677832 -162.46046448 30.08056641 C-160.49036659 30.11029541 -160.49036659 30.11029541 -158.48046875 30.140625 C-156.39286645 30.15076064 -154.30531965 30.15386501 -152.21769619 30.15692139 C-147.09150862 30.16459473 -141.96653629 30.18473882 -136.84106445 30.27490234 C-119.12075496 30.56857813 -104.85125372 29.65364743 -89.18850708 20.37475586 C-84.6640158 17.79604905 -79.72234639 16.16186329 -74.8203125 14.453125 C-73.78890137 14.08880371 -72.75749023 13.72448242 -71.69482422 13.34912109 C-54.59245285 7.45954554 -37.06255848 3.50439472 -19.1328125 1.203125 C-18.13200401 1.07213158 -18.13200401 1.07213158 -17.11097717 0.93849182 C-11.39460774 0.24225009 -5.75538618 0.02856336 0 0 Z " fill="#FE4342" transform="translate(243.1328125,-0.203125)"/>
<path d="M0 0 C3.78820883 0.66293654 7.37632961 1.92673054 11.02734375 3.1171875 C16.18399013 4.7419373 21.43720089 5.97672455 26.6875 7.2578125 C34.40293665 9.14972492 42.06296638 11.15241732 49.6875 13.3828125 C57.14773631 15.56321287 64.63891207 17.53164702 72.1875 19.3828125 C80.43528753 21.40693 88.6026521 23.60580349 96.75292969 25.98999023 C104.77107927 28.31249391 112.84959877 30.38323319 120.9375 32.4453125 C137.21480289 36.5954264 137.21480289 36.5954264 145.125 39.0078125 C153.00386628 41.40713803 160.97696353 43.35682185 168.99389648 45.24072266 C180.92037662 48.11568912 180.92037662 48.11568912 185.1875 52.3828125 C185.66893945 58.08714053 184.50571412 63.05027105 183.0625 68.5078125 C182.83876709 69.37889648 182.61503418 70.24998047 182.38452148 71.14746094 C180.5471152 78.21859527 178.53138646 85.23556029 176.48754883 92.24926758 C174.57729506 98.86084454 172.88254292 105.51027935 171.25 112.1953125 C169.00118454 121.37853063 166.47928013 130.45066168 163.79760742 139.51611328 C159.48417343 154.10240926 155.51926117 168.73976011 152.08154297 183.55712891 C150.41804149 190.63396905 148.45693271 197.60177449 146.41796875 204.57836914 C144.70182749 210.48310518 143.14436901 216.40912108 141.6875 222.3828125 C140.02781951 229.18223475 138.21009894 235.91391666 136.25 242.6328125 C134.05109266 250.17675615 132.05875606 257.75111895 130.1875 265.3828125 C128.10085544 273.89294224 125.82093687 282.31942064 123.3671875 290.73046875 C121.43315415 297.40339011 119.72909524 304.11567264 118.08178711 310.86425781 C116.37287221 317.79791968 114.42063704 324.64752935 112.42456055 331.50317383 C110.64487447 337.66115184 109.03220147 343.84647281 107.5 350.0703125 C107.28956055 350.90780029 107.07912109 351.74528809 106.86230469 352.6081543 C106.02694269 355.93518795 105.21507414 359.24804185 104.52734375 362.609375 C102.88916109 369.79134137 99.29446296 372.54324717 93.1875 376.3828125 C92.5692334 376.78081055 91.9509668 377.17880859 91.31396484 377.58886719 C62.37782085 396.16362724 31.54118972 408.96727662 -2.1875 415.9453125 C-3.01266113 416.12618408 -3.83782227 416.30705566 -4.68798828 416.4934082 C-13.38655707 418.14686248 -20.87138829 415.79298919 -29.1875 413.1953125 C-36.99636904 410.81491376 -44.8859198 408.83061592 -52.8125 406.8828125 C-61.11601749 404.83885287 -69.37486047 402.75247715 -77.5456543 400.2265625 C-81.60702005 398.98456083 -85.68221324 397.90988293 -89.8125 396.91796875 C-90.85688232 396.66281494 -91.90126465 396.40766113 -92.97729492 396.14477539 C-95.03097697 395.64764193 -97.08839407 395.16562309 -99.1496582 394.70092773 C-103.45230997 393.65033615 -106.17644177 392.96679578 -109.484375 389.9296875 C-111.7848906 385.51811053 -110.47812431 381.50463938 -109.06469727 376.99902344 C-108.66335571 375.82001465 -108.66335571 375.82001465 -108.25390625 374.6171875 C-107.98392822 373.82022461 -107.7139502 373.02326172 -107.43579102 372.20214844 C-107.23010498 371.60176758 -107.02441895 371.00138672 -106.8125 370.3828125 C-105.91571533 370.37916687 -105.01893066 370.37552124 -104.0949707 370.37176514 C-95.62074419 370.33381163 -87.14689966 370.27687551 -78.67294312 370.19890976 C-74.31694081 370.15949345 -69.96113889 370.12727648 -65.60498047 370.11181641 C-61.39665607 370.09661103 -57.18888276 370.06209748 -52.98080444 370.01450348 C-51.37979945 369.99972949 -49.77871576 369.99177378 -48.17764282 369.99092865 C-36.39265825 370.10681444 -36.39265825 370.10681444 -25.8125 365.3828125 C-22.0830167 360.69705143 -20.68619813 357.11705201 -20.69338799 351.19805813 C-20.69223043 350.11781634 -20.69107288 349.03757455 -20.68988025 347.92459816 C-20.69367698 346.73320498 -20.69747371 345.5418118 -20.7013855 344.3143158 C-20.70138648 343.05194534 -20.70138747 341.78957489 -20.70138848 340.48895079 C-20.70140274 337.71149181 -20.70457775 334.93406006 -20.71012688 332.15660667 C-20.71910993 327.63657879 -20.72121756 323.11656287 -20.72233582 318.5965271 C-20.72418748 312.88139114 -20.7277169 307.16626056 -20.73315342 301.45112688 C-20.74361871 290.19482433 -20.73935658 278.93856771 -20.72952271 267.68226624 C-20.72803507 265.90848142 -20.72654921 264.1346966 -20.72506511 262.36091179 C-20.72201392 258.76864809 -20.71888233 255.17638446 -20.71570611 251.58412087 C-20.7075825 242.34164436 -20.70014767 233.09916773 -20.69433594 223.85668945 C-20.693747 222.92914361 -20.69315806 222.00159776 -20.69255127 221.04594446 C-20.6837176 206.07102429 -20.69653786 191.09619176 -20.71662866 176.12128597 C-20.73669659 160.71893489 -20.72985274 145.31675183 -20.69948208 129.91441733 C-20.68168256 120.43334007 -20.68469986 110.95275331 -20.71546634 101.47170717 C-20.73467903 94.94907159 -20.72772764 88.42677276 -20.70132665 81.90416407 C-20.68691594 78.15588978 -20.68304674 74.40850295 -20.71085548 70.66028404 C-20.83420094 52.84829437 -19.11446537 36.97131877 -13.63213563 19.94943058 C-12.52853897 16.49361309 -11.57370836 13.00902577 -10.625 9.5078125 C-9.01848615 3.82566006 -6.47503288 -0.40468956 0 0 Z " fill="#0570B4" transform="translate(306.8125,92.6171875)"/>
<path d="M0 0 C1.06079773 0.00015106 2.12159546 0.00030212 3.21453857 0.00045776 C4.35320374 0.01078033 5.4918689 0.02110291 6.66503906 0.03173828 C8.42113495 0.03598312 8.42113495 0.03598312 10.21270752 0.04031372 C13.95213031 0.05150922 17.69131365 0.07661302 21.43066406 0.10205078 C23.96581685 0.11208138 26.5009734 0.12120709 29.03613281 0.12939453 C35.25105827 0.15144652 41.46584406 0.18491803 47.68066406 0.22705078 C46.74794678 0.92531982 46.74794678 0.92531982 45.79638672 1.63769531 C43.85477121 3.09625947 41.93807507 4.56792727 40.05566406 6.10205078 C39.46527344 6.57384766 38.87488281 7.04564453 38.26660156 7.53173828 C34.61838274 11.4315584 34.43839297 15.69836568 34.48535156 20.84033203 C34.49179688 22.0875 34.49824219 23.33466797 34.50488281 24.61962891 C34.52164063 25.91320312 34.53839844 27.20677734 34.55566406 28.53955078 C34.5646875 29.85246094 34.57371094 31.16537109 34.58300781 32.51806641 C34.60654609 35.75457992 34.63942887 38.99072227 34.68066406 42.22705078 C35.81810059 41.50014038 35.81810059 41.50014038 36.97851562 40.75854492 C42.13680784 37.83498447 47.94806265 38.45718977 53.68066406 39.22705078 C60.5145293 41.88845622 64.56117045 46.72275586 67.68066406 53.22705078 C68.33870099 56.26246066 68.35702583 59.17246039 68.31176758 62.27001953 C68.32250053 63.56922836 68.32250053 63.56922836 68.33345032 64.89468384 C68.35024966 67.73518912 68.33098658 70.57409644 68.30957031 73.41455078 C68.31039982 75.40177541 68.31286228 77.38899996 68.31687927 79.3762207 C68.31973128 83.53211224 68.30509429 87.68746306 68.27758789 91.84326172 C68.24350643 97.15610401 68.24952918 102.46797997 68.26825047 107.78086853 C68.27884587 111.88171364 68.26985953 115.98233597 68.25486565 120.0831604 C68.24970203 122.04146665 68.2501434 123.99979634 68.2564106 125.95809937 C68.26189358 128.7005981 68.24138968 131.44173833 68.21411133 134.18408203 C68.22390015 135.38443588 68.22390015 135.38443588 68.23388672 136.60903931 C68.12459933 143.1082438 66.20684251 148.29962251 61.93457031 153.25048828 C56.1163745 157.89967016 51.93112368 159.42034587 44.47363281 159.68798828 C41.68066406 159.22705078 41.68066406 159.22705078 33.68066406 155.22705078 C33.68066406 167.43705078 33.68066406 179.64705078 33.68066406 192.22705078 C18.68066406 184.22705078 18.68066406 184.22705078 17.68066406 183.22705078 C13.57236507 182.86449143 13.57236507 182.86449143 9.80566406 184.28955078 C8.03793133 187.33397938 8.31242491 189.79015198 8.68066406 193.22705078 C10.9994708 196.22645626 14.19261149 197.81296509 17.45019531 199.66064453 C18.58650391 200.3096875 19.7228125 200.95873047 20.89355469 201.62744141 C22.09324625 202.3067927 23.29311757 202.98582666 24.49316406 203.66455078 C26.83464715 204.99374215 29.17393004 206.32666253 31.51269531 207.66064453 C32.55143799 208.249021 33.59018066 208.83739746 34.66040039 209.44360352 C37.75272154 211.26960028 40.71153901 213.20891078 43.68066406 215.22705078 C40.48460635 218.42310849 35.88618066 218.30646229 31.53417969 218.90673828 C28.28190665 219.43139461 26.11521526 219.82203219 23.66894531 222.10205078 C22.13666843 225.3967489 22.78920933 227.78858252 23.68066406 231.22705078 C30.28947465 235.6329245 42.71752413 231.01660937 50.24121094 229.60009766 C59.48349836 227.92581467 66.00623341 227.03470856 74.18066406 232.22705078 C74.81230469 232.60861328 75.44394531 232.99017578 76.09472656 233.38330078 C77.63296672 234.31556754 79.15826361 235.26913589 80.68066406 236.22705078 C77.95288438 239.11159941 75.23680232 241.37629369 71.86816406 243.47705078 C70.65193359 244.25822266 70.65193359 244.25822266 69.41113281 245.05517578 C61.31672454 248.52917075 51.39973002 244.70578083 43.19628906 243.00439453 C33.4445923 240.50655297 33.4445923 240.50655297 24.18066406 242.78955078 C22.36948122 245.25571236 22.36948122 245.25571236 22.68066406 248.78955078 C23.82308568 252.71662509 24.22272333 253.26681686 27.68066406 255.22705078 C30.39992536 255.99447867 33.1435299 256.46398051 35.93066406 256.91455078 C36.67574219 257.04410156 37.42082031 257.17365234 38.18847656 257.30712891 C40.01751584 257.6236934 41.84888841 257.92672477 43.68066406 258.22705078 C40.17465473 261.16209873 36.62071742 263.53932583 32.64550781 265.79345703 C31.50662109 266.44378906 30.36773437 267.09412109 29.19433594 267.76416016 C28.0024766 268.43963977 26.81041739 269.11476683 25.61816406 269.78955078 C23.27120686 271.12090287 20.92667782 272.45630366 18.58300781 273.79345703 C17.546521 274.38070557 16.51003418 274.9679541 15.44213867 275.57299805 C13.04298749 277.0100283 10.81214045 278.41816436 8.68066406 280.22705078 C8.01806752 283.06273936 8.39898714 285.26944305 8.68066406 288.22705078 C10.64532598 290.6126163 10.64532598 290.6126163 14.34082031 290.60205078 C19.06646952 290.48244113 22.20827467 288.72937999 26.11816406 286.22705078 C32.65194785 282.22705078 32.65194785 282.22705078 33.68066406 282.22705078 C34.01066406 298.06705078 34.34066406 313.90705078 34.68066406 330.22705078 C35.67066406 329.56705078 36.66066406 328.90705078 37.68066406 328.22705078 C42.5400596 328.34158199 45.27724053 331.09097341 48.55566406 334.35205078 C49.06613281 334.81353516 49.57660156 335.27501953 50.10253906 335.75048828 C52.87678588 338.47974732 53.67266499 339.86229325 53.75878906 343.78955078 C51.99021365 349.42848689 48.32086156 352.7169659 43.68066406 356.22705078 C40.9701884 357.37020941 39.69688035 357.40802376 36.68066406 357.22705078 C35.69066406 356.56705078 34.70066406 355.90705078 33.68066406 355.22705078 C33.718824 363.43375563 33.77833359 371.6399179 33.8645668 379.84624481 C33.90395594 383.65744159 33.93618593 387.4684103 33.95166016 391.27978516 C33.96688388 394.96295418 34.00142862 398.64549583 34.04897308 402.3283844 C34.06372845 403.72842432 34.07170171 405.12855385 34.07254791 406.52867126 C34.08217215 414.47316835 34.25545749 420.48871491 38.68066406 427.22705078 C40.70452475 429.10805758 40.70452475 429.10805758 42.93066406 430.16455078 C44.18680807 430.84075969 45.43889711 431.52478937 46.68066406 432.22705078 C46.68066406 432.55705078 46.68066406 432.88705078 46.68066406 433.22705078 C36.08712982 434.13275753 25.47034105 434.41180065 14.84225464 434.51416016 C13.36846262 434.53098524 11.89473274 434.55482513 10.4211731 434.5859375 C-4.47868096 434.88541092 -4.47868096 434.88541092 -11.31933594 430.22705078 C-15.19366422 426.49614625 -18.21715324 422.65068444 -18.44775391 417.18115234 C-18.40279785 416.00520508 -18.3578418 414.82925781 -18.31152344 413.61767578 C-18.01964763 397.81538285 -18.17850128 387.00119036 -29.63330078 375.11425781 C-32.69223315 371.69034423 -35.037322 367.81109819 -37.44433594 363.91455078 C-38.19106567 362.71354736 -38.19106567 362.71354736 -38.95288086 361.48828125 C-64.14280262 320.46033534 -76.81459485 274.59776706 -76.63183594 226.60205078 C-76.62968079 225.58414459 -76.62752563 224.5662384 -76.62530518 223.51748657 C-76.57563448 208.90841555 -76.32473785 194.57629225 -73.31933594 180.22705078 C-73.12065918 179.25219727 -72.92198242 178.27734375 -72.71728516 177.27294922 C-64.14207393 136.27894321 -47.35589784 97.45401282 -20.31933594 65.22705078 C-21.12371094 64.93830078 -21.92808594 64.64955078 -22.75683594 64.35205078 C-25.31933594 63.22705078 -25.31933594 63.22705078 -26.31933594 61.22705078 C-26.44214926 58.78139101 -26.50765035 56.36524056 -26.52246094 53.91845703 C-26.52816101 53.19593246 -26.53386108 52.4734079 -26.53973389 51.72898865 C-26.54918312 50.1999559 -26.55571757 48.67090279 -26.55957031 47.1418457 C-26.56928405 44.80204837 -26.6003097 42.46312655 -26.63183594 40.12353516 C-26.63836531 38.63851434 -26.64361604 37.15348723 -26.64746094 35.66845703 C-26.65980774 34.96838028 -26.67215454 34.26830353 -26.68487549 33.54701233 C-26.67157896 30.64941689 -26.64372279 28.695538 -24.96679688 26.27368164 C-22.69958887 24.83332588 -20.94706286 25.01399184 -18.31933594 25.22705078 C-18.36574219 24.52580078 -18.41214844 23.82455078 -18.45996094 23.10205078 C-18.71005976 16.52802459 -18.26674158 11.63078083 -14.31933594 6.22705078 C-9.85776303 1.98855652 -6.15975907 -0.02933219 0 0 Z " fill="#F62C2C" transform="translate(76.3193359375,29.77294921875)"/>
<path d="M0 0 C1.41952217 -0.01058945 1.41952217 -0.01058945 2.86772156 -0.02139282 C42.38370862 -0.24928599 42.38370862 -0.24928599 58.8671875 3.203125 C59.84204102 3.40180176 60.81689453 3.60047852 61.82128906 3.80517578 C110.2031649 13.92579694 154.19147019 35.8423127 189.8671875 70.203125 C190.8562207 71.15131104 190.8562207 71.15131104 191.86523438 72.11865234 C201.3464952 81.25635791 210.12909319 90.54108282 217.8671875 101.203125 C218.31175293 101.81349609 218.75631836 102.42386719 219.21435547 103.05273438 C227.21348644 114.07617084 227.21348644 114.07617084 228.95239258 117.07397461 C231.19779484 120.74291691 232.90728275 122.56575 237.08203125 123.83984375 C238.650011 124.21705263 240.22479677 124.56690861 241.8046875 124.890625 C250.5978609 126.83103816 256.45323459 129.59432632 261.8671875 137.203125 C265.06323653 142.90487646 265.0567421 148.03933282 264.58203125 154.46875 C264.57257736 157.34340082 264.57257736 157.34340082 266.87109375 159 C269.538287 161.94382973 269.37610905 163.78213465 269.19970703 167.64794922 C268.46323284 173.30722886 266.61058851 178.68921062 264.91210938 184.11914062 C263.21785938 189.84769885 262.62566524 194.30471796 263.8671875 200.203125 C264.1839634 202.10736654 264.49608168 204.01238609 264.8046875 205.91796875 C265.33465748 209.03648612 265.86951191 212.15412513 266.40625 215.27148438 C266.66535156 216.79805664 266.66535156 216.79805664 266.9296875 218.35546875 C267.08566406 219.26288818 267.24164063 220.17030762 267.40234375 221.10522461 C268.50782686 228.47259601 269.04065004 235.71125884 269.10546875 243.16015625 C269.1152626 244.09287857 269.12505646 245.02560089 269.13514709 245.98658752 C269.3077864 266.70405604 269.17147346 286.8431692 264.8671875 307.203125 C264.64756348 308.24500977 264.42793945 309.28689453 264.20166016 310.36035156 C254.10403965 356.65361811 231.74489992 399.06726221 198.8671875 433.203125 C198.23506348 433.86248047 197.60293945 434.52183594 196.95166016 435.20117188 C175.63512515 457.31915617 175.63512515 457.31915617 165.8671875 462.203125 C166.42192758 456.81081279 167.41092556 451.87508626 169.0546875 446.703125 C171.23475368 439.5905787 173.1000404 432.42869203 174.8671875 425.203125 C176.55525082 418.31998915 178.30266989 411.48333036 180.3671875 404.703125 C182.40542192 398.00454824 184.13695844 391.25298936 185.8046875 384.453125 C187.88885732 375.95612498 190.15959154 367.54308087 192.61474609 359.14648438 C194.84858746 351.43514157 196.77538221 343.65959658 198.6875 335.86328125 C200.27950931 329.42022788 202.04004758 323.06166433 203.97290039 316.71386719 C206.11816884 309.56809845 207.85643856 302.32642596 209.63232422 295.08178711 C211.11117596 289.0944849 212.70024994 283.16651707 214.4921875 277.265625 C216.05544658 272.10808187 217.42904259 266.96414501 218.6171875 261.703125 C220.5711135 253.0522752 222.90240665 244.50566206 225.2421875 235.953125 C225.44014923 235.22924591 225.63811096 234.50536682 225.84207153 233.759552 C228.41086402 224.38117789 231.05387554 215.02720439 233.7668457 205.68945312 C235.93490313 198.14235097 237.80834161 190.52859711 239.67724609 182.90283203 C241.37339949 176.03166852 243.23613813 169.23342981 245.30688477 162.46582031 C247.07086877 156.68738009 248.54232759 151.27938578 247.8671875 145.203125 C243.63565049 141.83849517 238.42795452 140.73142008 233.3046875 139.328125 C232.37938232 139.069104 231.45407715 138.81008301 230.50073242 138.54321289 C223.42149071 136.58093051 216.30704719 134.77583332 209.17285156 133.02563477 C203.03559535 131.51543567 196.94888152 129.86441075 190.86645508 128.14819336 C184.71987399 126.42124886 178.54816433 124.80217103 172.3671875 123.203125 C164.79458081 121.24294397 157.24629167 119.21784946 149.71704102 117.09765625 C143.60023275 115.38448618 137.45557093 113.78900573 131.3046875 112.203125 C124.72407361 110.50547377 118.18132978 108.74420869 111.6796875 106.765625 C102.79274017 104.0638507 93.774484 101.88844295 84.74926758 99.70141602 C78.97671158 98.29000438 73.3225831 96.81177328 67.73974609 94.76513672 C63.60178946 93.52321023 59.89460392 93.86065286 55.8671875 95.203125 C54.93709995 97.34417664 54.93709995 97.34417664 54.37109375 99.99609375 C54.00008545 101.49148682 54.00008545 101.49148682 53.62158203 103.01708984 C53.37263184 104.06848145 53.12368164 105.11987305 52.8671875 106.203125 C52.3564643 108.24113516 51.8447455 110.27889608 51.33203125 112.31640625 C50.56115932 115.43735322 49.79402007 118.55918145 49.02929688 121.68164062 C47.81448237 126.59398824 46.58231856 131.43522478 44.8671875 136.203125 C44.5371875 136.203125 44.2071875 136.203125 43.8671875 136.203125 C43.8671875 122.343125 43.8671875 108.483125 43.8671875 94.203125 C46.1771875 93.213125 48.4871875 92.223125 50.8671875 91.203125 C54.0621104 84.8132792 52.87884489 76.22582234 52.5546875 69.265625 C52.52004395 68.42459229 52.48540039 67.58355957 52.44970703 66.71704102 C52.40571777 65.91967529 52.36172852 65.12230957 52.31640625 64.30078125 C52.27862061 63.58414307 52.24083496 62.86750488 52.2019043 62.12915039 C51.94502709 59.88216872 51.94502709 59.88216872 49.8671875 57.203125 C46.80162152 56.46969072 46.80162152 56.46969072 43.8671875 56.203125 C43.82851563 54.89988281 43.82851563 54.89988281 43.7890625 53.5703125 C43.45844851 46.85283726 43.2252511 42.40468479 38.8671875 37.203125 C38.8671875 36.543125 38.8671875 35.883125 38.8671875 35.203125 C33.67173273 32.40557243 28.85775974 30.95720154 22.9446106 30.9246521 C21.20312996 30.90790688 21.20312996 30.90790688 19.4264679 30.89082336 C18.16698837 30.88866318 16.90750885 30.88650299 15.60986328 30.88427734 C14.25923568 30.87497103 12.9086138 30.86480131 11.55799866 30.85383606 C7.90352392 30.82660116 4.24908759 30.81140605 0.59453821 30.79840803 C-3.22918431 30.78274891 -7.05282873 30.75596758 -10.87649536 30.7303772 C-18.11174822 30.68363857 -25.34701585 30.64687072 -32.58234227 30.61370432 C-40.82179255 30.57544815 -49.0611643 30.52604716 -57.30054832 30.47572017 C-74.24457952 30.37247346 -91.18865622 30.28318951 -108.1328125 30.203125 C-84.52952821 11.92940782 -48.08838621 4.9195516 -19.1328125 1.203125 C-18.13200401 1.07213158 -18.13200401 1.07213158 -17.11097717 0.93849182 C-11.39460774 0.24225009 -5.75538618 0.02856336 0 0 Z " fill="#F52D2D" transform="translate(243.1328125,-0.203125)"/>
<path d="M0 0 C3.32523529 0.9852549 4.32915883 1.36667122 6.375 4 C6.77372742 5.9172821 6.77372742 5.9172821 6.80737305 8.10424805 C6.82716721 8.92487228 6.84696136 9.74549652 6.86735535 10.59098816 C6.87374527 11.47232925 6.88013519 12.35367035 6.88671875 13.26171875 C6.90466995 14.16751175 6.92262115 15.07330475 6.94111633 16.00654602 C6.99530659 18.90014996 7.02914286 21.79358815 7.0625 24.6875 C7.09566539 26.64911165 7.13015432 28.61070141 7.16601562 30.57226562 C7.25103806 35.38139097 7.3178076 40.19046641 7.375 45 C8.14585937 44.07316406 8.91671875 43.14632812 9.7109375 42.19140625 C10.72378032 40.98162177 11.7368109 39.77199448 12.75 38.5625 C13.25789063 37.95083984 13.76578125 37.33917969 14.2890625 36.70898438 C18.95360205 31.15449978 18.95360205 31.15449978 23.25 30.6875 C26.375 31 26.375 31 28.75 32.5625 C30.98115463 35.90923195 30.7349722 38.03183584 30.375 42 C28.86328125 44.5625 28.86328125 44.5625 26.6875 47 C25.87925781 47.92554688 25.07101563 48.85109375 24.23828125 49.8046875 C23.78662598 50.30709961 23.3349707 50.80951172 22.86962891 51.32714844 C21.19541065 53.20100396 19.55541268 55.10175011 17.91796875 57.0078125 C9.03341539 67.34158461 9.03341539 67.34158461 7.375 69 C7.21879445 70.41327947 7.12443827 71.8335459 7.05859375 73.25390625 C7.01669922 74.10791016 6.97480469 74.96191406 6.93164062 75.84179688 C6.89232422 76.73962891 6.85300781 77.63746094 6.8125 78.5625 C6.74772461 79.91504883 6.74772461 79.91504883 6.68164062 81.29492188 C6.57521858 83.52978485 6.47320012 85.76476308 6.375 88 C8.98227425 86.7448703 11.55381765 85.45062689 14.125 84.125 C14.85460937 83.77953125 15.58421875 83.4340625 16.3359375 83.078125 C21.69492791 80.25247551 23.60902086 77.45759338 25.52441406 71.75585938 C25.80510742 70.84642578 26.08580078 69.93699219 26.375 69 C27.03591301 67.12686619 27.70267767 65.25578775 28.375 63.38671875 C29.38445517 60.5180522 30.38849982 57.64813431 31.375 54.77148438 C34.64771975 45.53499992 34.64771975 45.53499992 38.375 42 C42.34069988 41.36265538 44.40780512 41.38000328 47.8125 43.5625 C50.04973756 47.05259059 49.89924205 48.87159387 49.375 53 C48.43585244 55.93078808 47.38612092 58.78450462 46.25 61.64453125 C45.25892481 63.8936804 45.25892481 63.8936804 45.375 66 C49.2714782 63.7769872 53.16754187 61.55325011 57.06323242 59.32885742 C58.38701346 58.57312701 59.71090517 57.81759043 61.03491211 57.06225586 C62.94414325 55.97301041 64.8529679 54.88305557 66.76171875 53.79296875 C67.34837814 53.45847214 67.93503754 53.12397552 68.53947449 52.77934265 C71.0871165 51.32359629 73.59861345 49.85510336 76.06176758 48.2590332 C79.48541995 46.39562684 81.69824327 46.97867869 85.375 48 C87.375 49.625 87.375 49.625 88.375 52 C88.375 55.5 88.375 55.5 87.375 59 C83.99319466 62.09173101 80.28480588 64.3232511 76.3046875 66.56640625 C75.16128906 67.21673828 74.01789063 67.86707031 72.83984375 68.53710938 C71.03896677 69.55425769 69.23715666 70.56973366 67.43505859 71.5847168 C65.68100621 72.57461576 63.93029988 73.57043638 62.1796875 74.56640625 C60.61710205 75.44727905 60.61710205 75.44727905 59.02294922 76.34594727 C56.77480129 77.75026242 55.11870081 79.02907154 53.375 81 C54.48359375 81.17015625 55.5921875 81.3403125 56.734375 81.515625 C58.19805768 81.75957211 59.66159196 82.00441076 61.125 82.25 C61.85460937 82.35957031 62.58421875 82.46914062 63.3359375 82.58203125 C67.82015675 83.35657821 70.58356395 84.1249988 73.375 88 C73.9375 91.5 73.9375 91.5 73.375 95 C71.5625 97.5 71.5625 97.5 68.375 99 C60.53631599 99.58937474 52.24952785 97.05583812 44.63256836 95.37304688 C35.21961872 93.32039428 35.21961872 93.32039428 26.0390625 95.53125 C25.03617187 96.1809375 24.03328125 96.830625 23 97.5 C17.51388889 101 17.51388889 101 15.375 101 C15.375 101.66 15.375 102.32 15.375 103 C16.014375 103.226875 16.65375 103.45375 17.3125 103.6875 C20.72845558 105.15148096 23.75661686 107.0000717 26.8984375 108.9765625 C34.00523913 111.91344267 42.24483171 108.98592254 49.4375 107.5 C51.73980232 107.0259589 54.04316461 106.55703092 56.34765625 106.09375 C57.36093994 105.88427734 58.37422363 105.67480469 59.41821289 105.45898438 C63.88807128 104.76512476 67.18368805 104.37844594 71.25 106.5 C73.49800438 109.14471103 73.74139795 109.76495861 73.875 113.0625 C73.375 117 73.375 117 72.09448242 118.6730957 C70.15278117 120.17148365 68.7500437 120.64754686 66.36328125 121.16796875 C65.60595703 121.33876953 64.84863281 121.50957031 64.06835938 121.68554688 C63.28267578 121.85119141 62.49699219 122.01683594 61.6875 122.1875 C60.89021484 122.36474609 60.09292969 122.54199219 59.27148438 122.72460938 C57.30814828 123.15960001 55.34183569 123.58111716 53.375 124 C54.19178223 124.46374023 55.00856445 124.92748047 55.85009766 125.40527344 C58.90384405 127.14048472 61.95644088 128.87768545 65.00830078 130.61621094 C66.32490843 131.36569928 67.6419585 132.11441103 68.95947266 132.86230469 C70.86219595 133.94257908 72.76326687 135.0257132 74.6640625 136.109375 C75.80568848 136.75874023 76.94731445 137.40810547 78.12353516 138.07714844 C87.0543177 143.35863539 87.0543177 143.35863539 88.375 146 C88.76003376 149.54231061 88.79435959 151.36257342 86.8125 154.375 C84.24342015 156.0877199 82.62689075 156.51810203 79.55786133 156.44140625 C74.58989931 155.43681221 70.29719464 152.38582005 66 149.8125 C64.01311164 148.65218824 62.02613367 147.49202992 60.0390625 146.33203125 C58.6144873 145.49019287 58.6144873 145.49019287 57.16113281 144.63134766 C53.26967819 142.35280754 49.33010433 140.16571362 45.375 138 C45.59551025 138.73822998 45.81602051 139.47645996 46.04321289 140.23706055 C46.56917318 141.99788411 47.09513346 143.75870768 47.62109375 145.51953125 C48.17887873 147.35473055 48.76844575 149.18033726 49.375 151 C49.72528204 154.85310248 49.92918511 157.13547123 47.8125 160.4375 C44.40780512 162.61999672 42.34069988 162.63734462 38.375 162 C34.71292699 158.32416626 33.47208956 154.77954849 32.140625 149.828125 C31.73895806 148.42913277 31.33296387 147.03137713 30.9230957 145.63476562 C30.71238434 144.91587158 30.50167297 144.19697754 30.28457642 143.45629883 C26.5157023 129.57039634 26.5157023 129.57039634 16.88769531 119.54199219 C13.7477981 118.05496585 10.73176481 116.90973802 7.375 116 C6.0343953 127.54615273 6.0343953 127.54615273 9.28515625 138.32421875 C11.86016479 141.05046426 14.57089568 143.51179617 17.375 146 C19.03722123 147.92684068 20.66385729 149.88506389 22.25 151.875 C22.94867188 152.73867188 23.64734375 153.60234375 24.3671875 154.4921875 C25.02976562 155.31976563 25.69234375 156.14734375 26.375 157 C27.10976562 157.85722656 27.84453125 158.71445312 28.6015625 159.59765625 C31.04834386 162.9121288 30.96018938 164.97682301 30.375 169 C28.75 171.4375 28.75 171.4375 26.375 173 C22.38784608 173.78009533 20.83773431 173.30520774 17.4375 171.0625 C14.87086131 168.71203486 12.80031089 166.06507427 10.68359375 163.30859375 C9.75051392 162.09707642 9.75051392 162.09707642 8.79858398 160.86108398 C8.32880127 160.24692627 7.85901855 159.63276855 7.375 159 C7.37089111 160.22106445 7.36678223 161.44212891 7.36254883 162.70019531 C7.34076784 167.23301334 7.28648906 171.76496202 7.22241211 176.29736328 C7.19922305 178.25854151 7.18483426 180.21984443 7.17944336 182.18115234 C7.17016032 185.00176783 7.12918541 187.82041972 7.08203125 190.640625 C7.0859639 191.51680481 7.08989655 192.39298462 7.09394836 193.29571533 C6.9487746 199.36004157 6.9487746 199.36004157 4.05737305 202.58496094 C0.37009097 204.53012221 -1.67582607 204.17012561 -5.625 203 C-8.37423245 200.55819227 -8.83718884 198.40065581 -9.05737305 194.87402344 C-9.09869696 193.20277554 -9.1242149 191.53108695 -9.13671875 189.859375 C-9.15466995 188.97719299 -9.17262115 188.09501099 -9.19111633 187.18609619 C-9.24520971 184.37411245 -9.27911176 181.56229835 -9.3125 178.75 C-9.34567395 176.84112223 -9.38016368 174.93226685 -9.41601562 173.0234375 C-9.50093561 168.34908075 -9.56775141 163.67477424 -9.625 159 C-10.39585937 159.92683594 -11.16671875 160.85367188 -11.9609375 161.80859375 C-12.97378032 163.01837823 -13.9868109 164.22800552 -15 165.4375 C-15.76183594 166.35499023 -15.76183594 166.35499023 -16.5390625 167.29101562 C-21.20360205 172.84550022 -21.20360205 172.84550022 -25.5 173.3125 C-28.625 173 -28.625 173 -31 171.4375 C-33.2876917 168.00596245 -33.12885497 166.08122529 -32.625 162 C-31.00272857 159.28442632 -28.92271712 157.09861823 -26.75 154.8125 C-26.16444336 154.15668945 -25.57888672 153.50087891 -24.97558594 152.82519531 C-22.26349454 149.79160531 -19.49898469 146.85218296 -16.5703125 144.02734375 C-9.13540233 136.36615371 -8.39648445 130.00788957 -8.4921875 119.734375 C-8.53601563 118.50203125 -8.57984375 117.2696875 -8.625 116 C-14.94320479 117.65973146 -20.26049812 120.00252478 -24.625 125 C-28.39025806 131.62270034 -30.54673376 139.1338589 -32.81738281 146.36694336 C-33.04687622 147.09547516 -33.27636963 147.82400696 -33.51281738 148.57461548 C-33.94107249 149.96025753 -34.35463568 151.35055653 -34.75085449 152.74569702 C-35.96392361 156.80148457 -37.25187542 159.38756926 -40.625 162 C-44.22646865 162.60024477 -45.90359404 162.45562482 -49 160.5 C-51.3306719 156.91435092 -51.39449311 154.07640566 -50.625 150 C-49.16072404 145.57677193 -47.45361406 141.2841815 -45.625 137 C-49.25128575 139.03938901 -52.8757833 141.08193666 -56.5 143.125 C-57.51320312 143.69476563 -58.52640625 144.26453125 -59.5703125 144.8515625 C-65.2752935 148.06975691 -70.90383842 151.3568245 -76.43041992 154.87426758 C-80.08379499 156.7483039 -82.59467477 156.63636714 -86.625 156 C-88.625 155 -88.625 155 -89.625 153 C-90.33279977 147.42607683 -90.33279977 147.42607683 -89.625 145 C-86.04931218 141.82754202 -82.20126041 139.4867289 -78.046875 137.14453125 C-77.43483215 136.79742599 -76.82278931 136.45032074 -76.19219971 136.09269714 C-74.25544777 134.99514355 -72.31544104 133.90351587 -70.375 132.8125 C-68.42084521 131.70980523 -66.46741086 130.60586557 -64.51495361 129.50016785 C-62.75457025 128.5038347 -60.99208156 127.51122415 -59.22949219 126.51879883 C-56.77670804 125.23658423 -56.77670804 125.23658423 -55.625 124 C-57.28789063 123.65388672 -57.28789063 123.65388672 -58.984375 123.30078125 C-60.44814523 122.97237126 -61.91167483 122.64288743 -63.375 122.3125 C-64.10460937 122.16361328 -64.83421875 122.01472656 -65.5859375 121.86132812 C-69.36678767 120.98485831 -71.27700387 120.33448696 -74.140625 117.58203125 C-75.625 115 -75.625 115 -75.625 111.375 C-74.625 108 -74.625 108 -73 106.0625 C-65.27108386 102.60482699 -54.96464439 106.59996165 -47.140625 108.22265625 C-35.91317393 110.81780862 -35.91317393 110.81780862 -25.38867188 107.15625 C-24.82728516 106.7746875 -24.26589844 106.393125 -23.6875 106 C-23.09904297 105.6184375 -22.51058594 105.236875 -21.90429688 104.84375 C-20.46858233 103.90995192 -19.04541436 102.95691073 -17.625 102 C-19.61204143 100.6429961 -21.61102548 99.31597452 -23.625 98 C-24.45451172 97.42765625 -24.45451172 97.42765625 -25.30078125 96.84375 C-34.58600095 90.86705686 -45.75479225 95.23147511 -55.80273438 97.31054688 C-67.00532389 99.5211746 -67.00532389 99.5211746 -72.625 98 C-74.625 96.375 -74.625 96.375 -75.625 94 C-75.51043507 90.73489956 -75.38647447 88.17346626 -73.578125 85.38671875 C-70.5393762 83.2292071 -67.10554878 82.93262442 -63.5 82.375 C-58.67171547 81.98497399 -58.67171547 81.98497399 -54.625 80 C-55.74358398 79.35768433 -55.74358398 79.35768433 -56.88476562 78.70239258 C-59.68851874 77.0914528 -62.49148349 75.47915176 -65.29394531 73.8659668 C-66.50001815 73.17207289 -67.70639105 72.47870025 -68.91308594 71.78588867 C-88.29741567 60.65516865 -88.29741567 60.65516865 -89.625 58 C-89.98372645 54.12575435 -90.19210729 51.85066094 -88 48.5625 C-84.92151749 46.53718256 -83.27158239 46.68277268 -79.625 47 C-76.88354492 48.20581055 -76.88354492 48.20581055 -74.10546875 49.88671875 C-73.08259766 50.49580078 -72.05972656 51.10488281 -71.00585938 51.73242188 C-69.95205078 52.37759766 -68.89824219 53.02277344 -67.8125 53.6875 C-65.72311244 54.94216625 -63.63327548 56.19608446 -61.54296875 57.44921875 C-60.54571777 58.05169434 -59.5484668 58.65416992 -58.52099609 59.27490234 C-54.60485996 61.60768079 -50.63018175 63.82441625 -46.625 66 C-46.99753906 65.07058594 -47.37007812 64.14117187 -47.75390625 63.18359375 C-48.23260738 61.93521629 -48.71042509 60.68649983 -49.1875 59.4375 C-49.66316406 58.21933594 -50.13882813 57.00117188 -50.62890625 55.74609375 C-51.7124874 51.67097876 -51.55921623 49.08025249 -50.625 45 C-49.5 43.0625 -49.5 43.0625 -47.625 42 C-44.17163957 41.62326977 -41.68905819 41.45491498 -38.55566406 43.06005859 C-35.85570573 45.77299093 -35.15308446 48.82022513 -34.171875 52.4140625 C-33.72431411 53.91085068 -33.27267227 55.40642344 -32.81738281 56.90087891 C-32.58297485 57.67538391 -32.34856689 58.44988892 -32.10705566 59.24786377 C-28.103508 73.92643563 -28.103508 73.92643563 -18.06738281 84.60302734 C-14.94330834 86.05930526 -11.97195766 87.15901318 -8.625 88 C-8.01118714 78.65193209 -7.60456025 70.34013151 -13.89086914 62.85449219 C-16.1849829 60.40115021 -18.53105004 58.01539667 -20.94335938 55.67822266 C-23.46151084 53.16518938 -25.64550699 50.45998244 -27.875 47.6875 C-28.93460938 46.39392578 -28.93460938 46.39392578 -30.015625 45.07421875 C-32.70650575 41.60611758 -33.06404928 39.39049283 -32.625 35 C-31 32.625 -31 32.625 -28.625 31 C-24.91759497 30.36895234 -23.29698223 30.52744476 -20.203125 32.703125 C-17.57005112 35.04895445 -15.47291229 37.46709604 -13.3125 40.25 C-12.61511719 41.14203125 -11.91773438 42.0340625 -11.19921875 42.953125 C-10.67972656 43.62859375 -10.16023438 44.3040625 -9.625 45 C-9.62089111 43.81446533 -9.61678223 42.62893066 -9.61254883 41.4074707 C-9.59074011 36.99947928 -9.53643259 32.59237828 -9.47241211 28.18481445 C-9.44924723 26.27897693 -9.43483993 24.37301167 -9.42944336 22.46704102 C-9.42014259 19.72331277 -9.37912929 16.98158937 -9.33203125 14.23828125 C-9.3359639 13.38913651 -9.33989655 12.53999176 -9.34394836 11.66511536 C-9.2373971 7.32317184 -8.99898051 5.49657899 -6.30737305 1.92260742 C-3.625 0 -3.625 0 0 0 Z " fill="#FEB309" transform="translate(173.625,165)"/>
<path d="M0 0 C1.41952217 -0.01058945 1.41952217 -0.01058945 2.86772156 -0.02139282 C42.38370862 -0.24928599 42.38370862 -0.24928599 58.8671875 3.203125 C59.84204102 3.40180176 60.81689453 3.60047852 61.82128906 3.80517578 C110.2031649 13.92579694 154.19147019 35.8423127 189.8671875 70.203125 C190.8562207 71.15131104 190.8562207 71.15131104 191.86523438 72.11865234 C201.35026646 81.25999252 210.10976034 90.55167316 217.8671875 101.203125 C218.31707031 101.81349609 218.76695312 102.42386719 219.23046875 103.05273438 C223.79684481 109.2591469 228.12331589 115.45733357 231.8671875 122.203125 C224.68758012 121.63142927 218.20003633 120.05101213 211.3046875 118.015625 C202.6949967 115.5343244 194.0714111 113.20437957 185.3671875 111.078125 C177.87921138 109.24307921 170.47216224 107.2665195 163.09570312 105.02685547 C157.72563842 103.41247006 152.31391224 102.03375302 146.8671875 100.703125 C140.81520479 99.22452862 134.82621457 97.64517123 128.8671875 95.828125 C120.15553936 93.18102667 111.32575529 91.04596682 102.48608398 88.87304688 C94.05106902 86.78584453 85.68586266 84.52326519 77.35058594 82.06860352 C71.08893964 80.227659 65.63859641 79.07412087 59.0546875 79.140625 C57.31251953 79.15416016 57.31251953 79.15416016 55.53515625 79.16796875 C54.65472656 79.17957031 53.77429688 79.19117187 52.8671875 79.203125 C52.84736816 78.64326904 52.82754883 78.08341309 52.80712891 77.5065918 C52.71180967 74.96746646 52.60215997 72.42915612 52.4921875 69.890625 C52.44578125 68.56901367 52.44578125 68.56901367 52.3984375 67.22070312 C52.35976563 66.37314453 52.32109375 65.52558594 52.28125 64.65234375 C52.2498291 63.87205811 52.2184082 63.09177246 52.18603516 62.2878418 C51.97130861 59.90156732 51.97130861 59.90156732 49.8671875 57.203125 C46.80162152 56.46969072 46.80162152 56.46969072 43.8671875 56.203125 C43.82851563 54.89988281 43.82851563 54.89988281 43.7890625 53.5703125 C43.45844851 46.85283726 43.2252511 42.40468479 38.8671875 37.203125 C38.8671875 36.543125 38.8671875 35.883125 38.8671875 35.203125 C33.67173273 32.40557243 28.85775974 30.95720154 22.9446106 30.9246521 C21.20312996 30.90790688 21.20312996 30.90790688 19.4264679 30.89082336 C18.16698837 30.88866318 16.90750885 30.88650299 15.60986328 30.88427734 C14.25923568 30.87497103 12.9086138 30.86480131 11.55799866 30.85383606 C7.90352392 30.82660116 4.24908759 30.81140605 0.59453821 30.79840803 C-3.22918431 30.78274891 -7.05282873 30.75596758 -10.87649536 30.7303772 C-18.11174822 30.68363857 -25.34701585 30.64687072 -32.58234227 30.61370432 C-40.82179255 30.57544815 -49.0611643 30.52604716 -57.30054832 30.47572017 C-74.24457952 30.37247346 -91.18865622 30.28318951 -108.1328125 30.203125 C-84.52952821 11.92940782 -48.08838621 4.9195516 -19.1328125 1.203125 C-18.13200401 1.07213158 -18.13200401 1.07213158 -17.11097717 0.93849182 C-11.39460774 0.24225009 -5.75538618 0.02856336 0 0 Z " fill="#FBC56D" transform="translate(243.1328125,-0.203125)"/>
<path d="M0 0 C0.33 0 0.66 0 1 0 C1 4.62 1 9.24 1 14 C-0.98 14.66 -2.96 15.32 -5 16 C-7.46867057 18.46867057 -6.17337145 24.50227308 -6.18554688 27.9609375 C-6.18546631 28.68506836 -6.18538574 29.40919922 -6.18530273 30.15527344 C-6.18748408 32.35892184 -6.20562168 34.56206562 -6.22460938 36.765625 C-6.22754428 38.16406078 -6.22952843 39.56249895 -6.23046875 40.9609375 C-6.23457764 42.23759277 -6.23868652 43.51424805 -6.24291992 44.82958984 C-6.24805473 48.15822354 -6.24805473 48.15822354 -4 51 C-2.35 51.33 -0.7 51.66 1 52 C1 61.57 1 71.14 1 81 C3.64 81.33 6.28 81.66 9 82 C12.23434562 84.74919378 12.91099179 86.28793429 13.4375 90.5 C12.97294937 94.21640506 12.32637406 96.09203243 10 99 C6.70008006 101.30994395 5.34890362 101 1 101 C1 174.92 1 248.84 1 325 C-4.63593603 319.36406397 -4.63593603 319.36406397 -6.796875 316.3203125 C-7.51556763 315.31000977 -7.51556763 315.31000977 -8.2487793 314.27929688 C-8.74418213 313.56837891 -9.23958496 312.85746094 -9.75 312.125 C-10.27440674 311.37541016 -10.79881348 310.62582031 -11.33911133 309.85351562 C-16.24758784 302.76341089 -20.75208204 295.50156004 -25 288 C-25.36158203 287.37254883 -25.72316406 286.74509766 -26.09570312 286.09863281 C-47.70669318 248.3461008 -57.47700596 205.57716928 -57.3125 162.375 C-57.31034485 161.35709381 -57.3081897 160.33918762 -57.30596924 159.29043579 C-57.25629854 144.68136477 -57.00540191 130.34924147 -54 116 C-53.80132324 115.02514648 -53.60264648 114.05029297 -53.39794922 113.04589844 C-45.19260871 73.8200684 -29.04674314 29.04674314 0 0 Z " fill="#FBC56D" transform="translate(57,94)"/>
<path d="M0 0 C2.60661991 3.90992986 3.11603811 7.56016555 4 12.125 C4.165 12.92292969 4.33 13.72085938 4.5 14.54296875 C7.64472108 30.43855108 8.40788572 46.14700918 8.375 62.3125 C8.37445618 63.32201721 8.37391235 64.33153442 8.37335205 65.37164307 C8.33258601 81.88123539 7.42529309 97.79782001 4 114 C3.78037598 115.04188477 3.56075195 116.08376953 3.33447266 117.15722656 C-8.24332645 170.23647825 -35.65260579 214.25492088 -74 252 C-75.63804767 247.97101319 -74.21785277 244.66854365 -72.9375 240.75 C-70.69804264 233.55582255 -68.78485763 226.3197075 -67 219 C-65.3124565 212.11675421 -63.56450884 205.28017654 -61.5 198.5 C-59.46176565 191.80142348 -57.73021955 185.04986713 -56.0625 178.25 C-53.95556256 169.65970927 -51.66026172 161.15215716 -49.18212891 152.66210938 C-47.21805375 145.88765997 -45.49272839 139.07097472 -43.81958008 132.21972656 C-42.55745849 127.09880278 -41.1620012 122.0446442 -39.625 117 C-36.97830606 108.28893391 -34.84391991 99.45979912 -32.66992188 90.62109375 C-30.20243827 80.65397179 -27.46883879 70.78207438 -24.55322266 60.9375 C-23.99083026 58.96788568 -23.48578195 56.98976287 -23 55 C-21.906875 54.731875 -20.81375 54.46375 -19.6875 54.1875 C-15.66141419 52.90869183 -15.66141419 52.90869183 -13 50 C-12.04383095 47.52440022 -12.04383095 47.52440022 -11.39453125 44.703125 C-11.13349609 43.6615625 -10.87246094 42.62 -10.60351562 41.546875 C-10.21196289 39.91492188 -10.21196289 39.91492188 -9.8125 38.25 C-9.53986328 37.1775 -9.26722656 36.105 -8.98632812 35 C-7.65312225 29.5736182 -6.48659992 24.59376204 -7 19 C-8.54262813 16.89641619 -9.68108317 16.15945841 -12 15 C-11.32920913 11.17968626 -10.55726285 7.56332021 -9 4 C-5.4375 2.4375 -5.4375 2.4375 -2 2 C-1.34 1.34 -0.68 0.68 0 0 Z " fill="#FAC46C" transform="translate(504,193)"/>
<path d="M0 0 C26.73667043 23.55471738 26.73667043 23.55471738 34.52734375 35.2265625 C34.52734375 35.5565625 34.52734375 35.8865625 34.52734375 36.2265625 C29.76043679 36.46746285 25.83078373 35.6105309 21.33984375 34.1640625 C13.74555884 31.82650788 6.09808995 29.76566676 -1.59765625 27.7890625 C-2.75144775 27.49201416 -3.90523926 27.19496582 -5.09399414 26.88891602 C-8.55310634 25.99973304 -12.01282548 25.11294484 -15.47265625 24.2265625 C-37.36790177 18.60852692 -37.36790177 18.60852692 -46.66015625 15.7890625 C-55.49461501 13.11008448 -64.451795 10.92772346 -73.41479492 8.72485352 C-74.55537354 8.44440186 -75.69595215 8.1639502 -76.87109375 7.875 C-77.98347412 7.60244385 -79.09585449 7.3298877 -80.24194336 7.04907227 C-83.30683331 6.26877949 -86.3375687 5.40745394 -89.375 4.52734375 C-93.55818834 3.37188508 -97.2941546 2.89822374 -101.66015625 3.0390625 C-102.76746094 3.06613281 -103.87476563 3.09320313 -105.015625 3.12109375 C-105.82644531 3.15589844 -106.63726562 3.19070312 -107.47265625 3.2265625 C-107.50238525 2.38677856 -107.50238525 2.38677856 -107.53271484 1.5300293 C-107.62803408 -1.00909604 -107.73768378 -3.54740638 -107.84765625 -6.0859375 C-107.87859375 -6.96701172 -107.90953125 -7.84808594 -107.94140625 -8.75585938 C-107.98007812 -9.60341797 -108.01875 -10.45097656 -108.05859375 -11.32421875 C-108.09001465 -12.10450439 -108.12143555 -12.88479004 -108.15380859 -13.6887207 C-108.36853514 -16.07499518 -108.36853514 -16.07499518 -110.47265625 -18.7734375 C-113.53822223 -19.50687178 -113.53822223 -19.50687178 -116.47265625 -19.7734375 C-116.4984375 -20.64226563 -116.52421875 -21.51109375 -116.55078125 -22.40625 C-116.88139524 -29.12372524 -117.11459265 -33.57187771 -121.47265625 -38.7734375 C-121.47265625 -39.4334375 -121.47265625 -40.0934375 -121.47265625 -40.7734375 C-127.08593784 -43.79597374 -132.11200778 -45.02222158 -138.48779297 -45.09228516 C-139.49860176 -45.10735359 -139.49860176 -45.10735359 -140.52983093 -45.12272644 C-142.73732723 -45.15339594 -144.94470318 -45.17054773 -147.15234375 -45.1875 C-148.6907758 -45.20622477 -150.22919772 -45.22579915 -151.76760864 -45.2461853 C-155.80181897 -45.2973744 -159.83606254 -45.33707054 -163.87042236 -45.37432861 C-167.99312475 -45.4144515 -172.11569041 -45.46550592 -176.23828125 -45.515625 C-184.31631262 -45.61222758 -192.39441203 -45.69668209 -200.47265625 -45.7734375 C-142.20678019 -76.18245354 -44.85888555 -38.01600471 0 0 Z " fill="#FEDE8D" transform="translate(403.47265625,75.7734375)"/>
<path d="M0 0 C2.31 0.33 4.62 0.66 7 1 C7 10.57 7 20.14 7 30 C9.64 30.33 12.28 30.66 15 31 C18.23434562 33.74919378 18.91099179 35.28793429 19.4375 39.5 C18.97294937 43.21640506 18.32637406 45.09203243 16 48 C12.70008006 50.30994395 11.34890362 50 7 50 C7 110.06 7 170.12 7 232 C2.48795015 226.35993769 2.48795015 226.35993769 0.66796875 222.953125 C0.26570068 222.20063477 -0.13656738 221.44814453 -0.55102539 220.67285156 C-13.46623832 195.86724423 -22.99876323 168.94661682 -26 141 C-26.08433792 140.2566893 -26.16867584 139.5133786 -26.25556946 138.74754333 C-26.87549477 133.0203574 -27.15990822 127.37576134 -27.16796875 121.6171875 C-27.17129715 120.75924591 -27.17462555 119.90130432 -27.17805481 119.0173645 C-27.18307872 117.21405567 -27.18546455 115.4107377 -27.18530273 113.60742188 C-27.18747814 110.90218091 -27.20565251 108.19735608 -27.22460938 105.4921875 C-27.27605937 89.63007269 -25.55507572 74.49638793 -22 59 C-21.83661133 58.28505371 -21.67322266 57.57010742 -21.50488281 56.83349609 C-16.83270143 36.85365946 -9.06199298 18.35473116 0 0 Z " fill="#FEDE8E" transform="translate(51,145)"/>
<path d="M0 0 C5.29916926 3.23444278 8.59676645 7.34479277 11.2734375 12.92578125 C11.93147442 15.96119113 11.94979927 18.87119086 11.90454102 21.96875 C11.91169632 22.83488922 11.91885162 23.70102844 11.92622375 24.59341431 C11.9430231 27.43391959 11.92376002 30.27282691 11.90234375 33.11328125 C11.90317326 35.10050588 11.90563572 37.08773043 11.90965271 39.07495117 C11.91250472 43.2308427 11.89786773 47.38619353 11.87036133 51.54199219 C11.83627986 56.85483448 11.84230261 62.16671044 11.8610239 67.479599 C11.87161931 71.58044411 11.86263297 75.68106644 11.84763908 79.78189087 C11.84247547 81.74019712 11.84291684 83.69852681 11.84918404 85.65682983 C11.85466702 88.39932857 11.83416312 91.1404688 11.80688477 93.8828125 C11.81341064 94.6830484 11.81993652 95.4832843 11.82666016 96.30776978 C11.71737277 102.80697427 9.79961595 107.99835298 5.52734375 112.94921875 C-0.28977782 117.59754222 -4.6204082 119.4250266 -12.16796875 119.234375 C-18.92704527 118.41915814 -23.25521543 114.9150287 -27.5 109.8046875 C-30.76820271 104.79830055 -31.03267202 100.08863953 -31.04882812 94.23925781 C-31.06372284 92.94311554 -31.06372284 92.94311554 -31.07891846 91.62078857 C-31.10806694 88.76929506 -31.12174999 85.91802412 -31.1328125 83.06640625 C-31.14432393 81.07729083 -31.15583929 79.08817543 -31.1673584 77.09906006 C-31.18835189 72.92963633 -31.20005426 68.76028943 -31.20703125 64.59082031 C-31.21799077 59.26327538 -31.26603293 53.93675534 -31.32297516 48.6095314 C-31.36033256 44.50011281 -31.37064461 40.39093845 -31.373703 36.28136444 C-31.37973448 34.31823885 -31.39571875 32.35511646 -31.42207336 30.39215851 C-31.65303509 11.866026 -31.65303509 11.866026 -26.35778809 5.47674561 C-18.9240418 -1.59123789 -9.98275822 -3.93303512 0 0 Z " fill="#022D4E" transform="translate(132.7265625,70.07421875)"/>
<path d="M0 0 C4.01805485 0.71072424 7.84579343 2.04069122 11.71875 3.3046875 C17.14879858 4.98987499 22.67628164 6.19460867 28.23046875 7.39453125 C27.60575684 7.62962402 26.98104492 7.8647168 26.33740234 8.10693359 C23.60229512 9.77842322 23.36840248 10.94237737 22.51953125 13.99609375 C22.11142212 15.42538208 22.11142212 15.42538208 21.69506836 16.88354492 C21.41800049 17.91842041 21.14093262 18.9532959 20.85546875 20.01953125 C20.55584229 21.09114502 20.25621582 22.16275879 19.94750977 23.2668457 C17.62444456 31.66977455 15.50239317 40.12298198 13.43237305 48.59130859 C11.60582396 56.03253453 9.55556515 63.38827087 7.40991211 70.74291992 C5.47602707 77.41561459 3.77200285 84.12764186 2.12475586 90.87597656 C0.41383788 97.81776565 -1.54171697 104.67508825 -3.5390625 111.5390625 C-5.48334572 118.26927366 -7.20713741 125.0367169 -8.86621094 131.84204102 C-10.65807718 139.11843185 -12.69636409 146.31478477 -14.80273438 153.50585938 C-15.04443359 154.33408203 -15.28613281 155.16230469 -15.53515625 156.015625 C-15.74946289 156.74193115 -15.96376953 157.4682373 -16.18457031 158.21655273 C-17.53092503 163.22942021 -17.92068275 167.95311989 -17.92774963 173.13301086 C-17.93268761 173.90499083 -17.93762559 174.6769708 -17.9427132 175.4723441 C-17.95805134 178.05488418 -17.96643882 180.63739948 -17.97485352 183.2199707 C-17.98443494 185.07290362 -17.99444517 186.92583436 -18.00485229 188.77876282 C-18.03187881 193.80721807 -18.05290059 198.83568269 -18.07285428 203.86417031 C-18.09472771 209.11992869 -18.12210977 214.37565828 -18.14891052 219.63139343 C-18.19881903 229.58309797 -18.24376471 239.53481851 -18.28693289 249.48655432 C-18.33632098 260.81658255 -18.39123329 272.14658189 -18.44661248 283.47658217 C-18.56040426 306.78253824 -18.66724943 330.08852203 -18.76953125 353.39453125 C-19.09953125 353.39453125 -19.42953125 353.39453125 -19.76953125 353.39453125 C-19.93018572 314.34500339 -20.05331736 275.29551905 -20.12698856 236.24572603 C-20.13574221 231.62263843 -20.14480259 226.99955148 -20.15405273 222.37646484 C-20.15588891 221.45619434 -20.15772508 220.53592383 -20.1596169 219.58776633 C-20.18997393 204.73868485 -20.24510875 189.88979546 -20.30960082 175.04082747 C-20.37534758 159.77424638 -20.41400275 144.50776504 -20.42815071 129.24104822 C-20.43769675 119.84071951 -20.46770776 110.44093398 -20.52494652 101.04077272 C-20.56230283 94.57143375 -20.57305309 88.10237046 -20.56404089 81.63293178 C-20.55961138 77.91500057 -20.56579174 74.19800981 -20.60396957 70.48025131 C-20.77731876 52.72328539 -19.05600393 36.93388173 -13.59039032 19.96481967 C-12.48633194 16.50777258 -11.531029 13.02202396 -10.58203125 9.51953125 C-8.98154119 3.85868465 -6.4530121 -0.37149537 0 0 Z " fill="#0D5F98" transform="translate(306.76953125,92.60546875)"/>
<path d="M0 0 C0.33 0 0.66 0 1 0 C1.268125 0.94875 1.53625 1.8975 1.8125 2.875 C2.74986588 6.25267273 2.74986588 6.25267273 6 8 C10.65815681 7.59404786 10.65815681 7.59404786 15 6 C12.74971091 16.09982693 10.17901128 26.05314461 7.28271484 35.98706055 C5.55205502 41.9619059 3.9736411 47.95693837 2.5 54 C0.60218703 61.77575086 -1.53338156 69.459895 -3.76953125 77.14453125 C-5.48047378 83.06702461 -7.03821404 89.01145002 -8.5 95 C-10.15983498 101.79938829 -11.97739889 108.53109671 -13.9375 115.25 C-16.42788802 123.79394658 -18.62423354 132.38846376 -20.74316406 141.03125 C-22.63886799 148.70350913 -24.71969865 156.30785239 -26.96972656 163.88378906 C-28.33081539 168.49151178 -29.39530987 173.01633157 -30.25 177.75 C-31.89762631 184.5634194 -36.59050818 187.92733662 -42 192 C-42.8765625 192.69609375 -43.753125 193.3921875 -44.65625 194.109375 C-46.75168822 195.7671584 -48.86382645 197.39528992 -51 199 C-52.19248323 195.52141691 -51.792495 193.30942451 -50.8125 189.80078125 C-50.52947021 188.76937012 -50.24644043 187.73795898 -49.95483398 186.67529297 C-49.63973877 185.56557129 -49.32464355 184.45584961 -49 183.3125 C-48.68039307 182.15637207 -48.36078613 181.00024414 -48.03149414 179.80908203 C-47.03184979 176.20291586 -46.01821052 172.60096437 -45 169 C-43.81189391 164.79183722 -42.62413302 160.58357843 -41.4375 156.375 C-41.1482666 155.35253174 -40.8590332 154.33006348 -40.56103516 153.27661133 C-38.24889707 145.04262154 -36.16545084 136.76227025 -34.12866211 128.45654297 C-32.55405473 122.08125198 -30.8063857 115.79075593 -28.89404297 109.50976562 C-27.05652908 103.38959983 -25.52230244 97.20512113 -24 91 C-22.14508483 83.43910214 -20.16216649 75.95834029 -17.89453125 68.51171875 C-15.7484541 61.36268469 -14.00944538 54.11775347 -12.23266602 46.86987305 C-10.6091529 40.29707002 -8.81026698 33.81252697 -6.83520508 27.33813477 C-4.13394901 18.33650898 -2.09687266 9.15746767 0 0 Z " fill="#D63333" transform="translate(461,263)"/>
<path d="M0 0 C2.70312354 0.00561016 5.40624868 0.00965864 8.109375 0.01367188 C14.65627031 0.02456133 21.20313073 0.04118996 27.75 0.0625 C27.58991455 1.1460376 27.4298291 2.2295752 27.26489258 3.34594727 C26.15004334 11.39305487 25.09060237 20.25053114 29.4921875 27.453125 C36.12234785 35.93643576 46.39384422 37.61003814 56.3125 40 C58.44026476 40.52408801 60.56786913 41.04882764 62.6953125 41.57421875 C63.7255957 41.8273584 64.75587891 42.08049805 65.81738281 42.34130859 C69.77844635 43.31541629 73.73688989 44.29679829 77.6875 45.3125 C78.85152344 45.60640625 80.01554688 45.9003125 81.21484375 46.203125 C83.75 47.0625 83.75 47.0625 84.75 49.0625 C37.09166257 47.76743648 -11.85290469 30.39792872 -50.25 2.0625 C-50.25 1.7325 -50.25 1.4025 -50.25 1.0625 C-33.4970684 -0.033036 -16.78324777 -0.05482693 0 0 Z " fill="#FAC26C" transform="translate(156.25,462.9375)"/>
<path d="M0 0 C0.64216003 26.63235246 -1.17648686 51.12504324 -9.27832031 76.71923828 C-9.93207041 78.78531858 -10.55931277 80.8573138 -11.1796875 82.93359375 C-17.75536732 103.99844394 -28.13604803 126.67006004 -42 144 C-42.66 144 -43.32 144 -44 144 C-44.25279204 139.16721096 -43.34241114 135.1766106 -41.875 130.625 C-39.66513962 123.47169472 -37.77601125 116.27258835 -36 109 C-34.14596952 101.43890303 -32.16215349 93.95829759 -29.89453125 86.51171875 C-28.05709066 80.39081792 -26.52257797 74.20576118 -25 68 C-23.1392357 60.42057333 -21.15896338 52.91456324 -18.89672852 45.44580078 C-16.23879213 36.59874547 -14.00216682 27.63793722 -11.69775391 18.69384766 C-10.69221098 14.81170608 -9.66203961 10.93632943 -8.625 7.0625 C-8.14933594 5.28552734 -8.14933594 5.28552734 -7.6640625 3.47265625 C-7.33535156 2.24869141 -7.33535156 2.24869141 -7 1 C-2.25 0 -2.25 0 0 0 Z " fill="#FEDC8C" transform="translate(488,247)"/>
<path d="M0 0 C4.95 0 9.9 0 15 0 C14.484375 1.835625 13.96875 3.67125 13.4375 5.5625 C12.21257529 10.53252943 11.33741334 14.11615169 13 19 C17.62719832 22.74258688 23.58940868 23.55571986 29.25 24.875 C36.38725241 26.59425447 43.47984214 28.34935112 50.5 30.5 C57.13598761 32.5211623 63.82411462 34.22925405 70.5625 35.875 C82.82168376 38.8726115 94.91486312 42.36992539 107 46 C98.30371941 50.79153018 86.3877371 49.18624734 76.7121582 49.18530273 C74.17577838 49.1875102 71.63982005 49.20578209 69.10351562 49.22460938 C67.47916814 49.22754038 65.85481861 49.22952713 64.23046875 49.23046875 C63.47831589 49.23765427 62.72616302 49.24483978 61.95121765 49.25224304 C57.80579237 49.23423189 54.74909638 48.73706677 51 47 C49.29510982 46.523849 47.58062537 46.08108794 45.859375 45.66796875 C44.87888184 45.42933105 43.89838867 45.19069336 42.88818359 44.94482422 C41.33478271 44.56994873 41.33478271 44.56994873 39.75 44.1875 C32.26623458 42.34118002 24.78988241 40.48336636 17.375 38.375 C16.70823242 38.19348389 16.04146484 38.01196777 15.35449219 37.82495117 C8.07058366 35.70345177 3.39119862 31.97690924 -1 26 C-4.16091689 19.62309799 -4.18873004 11.34264383 -2.32421875 4.53125 C-1.5 2.625 -1.5 2.625 0 0 Z " fill="#D73232" transform="translate(185,463)"/>
<path d="M0 0 C2.88214091 0.65496257 5.73285164 1.38514568 8.58740234 2.15136719 C9.63283203 2.42207031 10.67826172 2.69277344 11.75537109 2.97167969 C19.30471438 4.9458421 26.809432 7.06989331 34.296875 9.26611328 C42.34648962 11.60745646 50.4745244 13.60311018 58.63427734 15.52246094 C59.60236328 15.75578125 60.57044922 15.98910156 61.56787109 16.22949219 C62.42920654 16.43219727 63.29054199 16.63490234 64.17797852 16.84375 C66.27490234 17.52636719 66.27490234 17.52636719 68.27490234 19.52636719 C67.42927734 20.18636719 66.58365234 20.84636719 65.71240234 21.52636719 C63.08580028 24.15671679 63.08580028 24.15671679 63.16552734 26.63964844 C63.43265203 28.61848003 63.84524017 30.57636194 64.27490234 32.52636719 C56.86026859 31.93568358 50.05035471 30.28289055 42.89990234 28.27636719 C40.58625013 27.63910409 38.27244682 27.00238928 35.95849609 26.36621094 C34.82524902 26.05280762 33.69200195 25.7394043 32.52441406 25.41650391 C28.01465679 24.18114891 23.48960932 23.00827886 18.96240234 21.83886719 C13.59052674 20.45021521 8.30490936 18.92792168 3.02490234 17.21386719 C-2.68148592 15.41337827 -6.93379835 14.59593409 -12.72509766 16.52636719 C-13.6551852 18.66741883 -13.6551852 18.66741883 -14.22119141 21.31933594 C-14.46853027 22.31626465 -14.71586914 23.31319336 -14.97070312 24.34033203 C-15.21965332 25.39172363 -15.46860352 26.44311523 -15.72509766 27.52636719 C-16.23582085 29.56437735 -16.74753965 31.60213827 -17.26025391 33.63964844 C-18.03112584 36.7605954 -18.79826509 39.88242364 -19.56298828 43.00488281 C-20.77780279 47.91723043 -22.0099666 52.75846697 -23.72509766 57.52636719 C-24.05509766 57.52636719 -24.38509766 57.52636719 -24.72509766 57.52636719 C-24.72509766 43.66636719 -24.72509766 29.80636719 -24.72509766 15.52636719 C-22.41509766 14.53636719 -20.10509766 13.54636719 -17.72509766 12.52636719 C-16.29043286 9.65703759 -16.39748701 6.79457348 -16.20166016 3.62011719 C-14.70668796 -2.94795736 -4.93018151 -0.85688516 0 0 Z " fill="#D73333" transform="translate(311.72509765625,78.4736328125)"/>
<path d="M0 0 C3.25953168 2.40029508 6.01937214 5.32473307 8.875 8.1875 C9.67164063 8.94353516 10.46828125 9.69957031 11.2890625 10.47851562 C16.85341544 16.00929058 16.85341544 16.00929058 17.453125 20.0625 C15.30764513 24.39959909 12.31290305 27.45004711 8.875 30.8125 C8.22273438 31.49248047 7.57046875 32.17246094 6.8984375 32.87304688 C3.90978894 35.84687079 1.47555719 37.7987403 -2.43359375 39.453125 C-8.18283671 38.72266259 -11.06407373 35.01671242 -14.9375 30.9375 C-15.71673828 30.17244141 -16.49597656 29.40738281 -17.29882812 28.61914062 C-22.86806918 22.92299312 -22.86806918 22.92299312 -23.43139648 18.98193359 C-22.92125414 15.45568654 -22.10912806 14.39129679 -19.5703125 11.94921875 C-18.85746094 11.25119141 -18.14460937 10.55316406 -17.41015625 9.83398438 C-16.65605469 9.12564453 -15.90195313 8.41730469 -15.125 7.6875 C-14.00544922 6.59598633 -14.00544922 6.59598633 -12.86328125 5.48242188 C-5.4953873 -1.63987561 -5.4953873 -1.63987561 0 0 Z " fill="#FFB30A" transform="translate(192,97)"/>
<path d="M0 0 C23.43 0 46.86 0 71 0 C71 0.33 71 0.66 71 1 C58.46 1 45.92 1 33 1 C32.34 3.97 31.68 6.94 31 10 C30.49513283 11.87936199 29.97695323 13.75527206 29.4375 15.625 C28.28668117 19.7574858 27.47338903 23.73949874 27 28 C20.6998266 27.42211769 14.79025611 26.40550756 8.6875 24.75 C7.90310547 24.55792969 7.11871094 24.36585938 6.31054688 24.16796875 C2.48654288 23.13480539 0.36756229 22.35177741 -2.546875 19.5625 C-4.73018719 15.71235808 -3.93980272 13.26043901 -3 9 C-2.01 6.03 -1.02 3.06 0 0 Z " fill="#115E96" transform="translate(200,463)"/>
<path d="M0 0 C4.29889538 2.59555948 6.39701707 5.38581444 8.3125 10 C9.03460293 15.23524622 8.19099072 18.58631423 5.3125 23 C1.63156473 26.73122127 -1.59540606 28.7538713 -6.875 29.375 C-11.82977559 28.88764502 -14.98383437 27.30326935 -18.6875 24 C-21.76830567 18.8974156 -22.33140991 14.79518918 -21.6875 9 C-16.93523868 -0.50452264 -9.72538449 -2.6373924 0 0 Z " fill="#FAF2F3" transform="translate(339.6875,198)"/>
<path d="M0 0 C0.63164062 0.3815625 1.26328125 0.763125 1.9140625 1.15625 C3.45230266 2.08851676 4.97759954 3.04208511 6.5 4 C3.77222031 6.88454863 1.05613826 9.14924291 -2.3125 11.25 C-3.12332031 11.77078125 -3.93414062 12.2915625 -4.76953125 12.828125 C-12.08299695 15.96695148 -20.476054 13.00612931 -27.9375 11.5 C-29.14599609 11.26152344 -30.35449219 11.02304687 -31.59960938 10.77734375 C-34.56762752 10.1907789 -37.53430221 9.5981667 -40.5 9 C-40.5 6.36 -40.5 3.72 -40.5 1 C-34.83397302 -0.31532769 -29.14537553 -1.50561333 -23.4375 -2.625 C-22.7775 -2.76010986 -22.1175 -2.89521973 -21.4375 -3.03442383 C-13.18880014 -4.6218902 -7.24053976 -4.59914114 0 0 Z " fill="#FE4442" transform="translate(150.5,262)"/>
<path d="M0 0 C4.28407536 0.87569542 8.47693489 2.01262828 12.6875 3.1875 C14.37842773 3.62545898 14.37842773 3.62545898 16.10351562 4.07226562 C17.72870117 4.52182617 17.72870117 4.52182617 19.38671875 4.98046875 C20.85951294 5.38108521 20.85951294 5.38108521 22.36206055 5.78979492 C25.62845043 7.28831363 27.02154535 9.03503608 29 12 C29.625 14.5 29.625 14.5 29 17 C26.375 19.875 26.375 19.875 23 22 C20.51171875 21.8046875 20.51171875 21.8046875 17 21 C16.15598633 20.81099121 15.31197266 20.62198242 14.44238281 20.42724609 C11.43132645 19.73642636 8.43507411 18.99703546 5.4375 18.25 C4.40947266 18.01023438 3.38144531 17.77046875 2.32226562 17.5234375 C-3.50547714 16.05800381 -7.38723697 14.93847651 -11 10 C-11.6767545 6.31544773 -11.49791771 4.75683492 -9.4375 1.625 C-6.20616831 -0.52922112 -3.73520334 -0.41828486 0 0 Z " fill="#012E50" transform="translate(380,132)"/>
<path d="M0 0 C3.7266381 1.21222825 5.54619338 2.44660364 8.2734375 5.23046875 C9.41425781 6.34808594 9.41425781 6.34808594 10.578125 7.48828125 C12.94835415 10.89612144 13.52023834 12.94619576 13.3984375 17.10546875 C11.93083039 19.69873797 10.00008421 21.57988789 7.8359375 23.60546875 C7.30935547 24.15460938 6.78277344 24.70375 6.24023438 25.26953125 C3.62198321 27.82048342 2.02900692 29.07738996 -1.671875 29.2421875 C-5.24261655 27.85673978 -7.22941154 26.14335797 -9.9140625 23.41796875 C-10.77644531 22.56847656 -11.63882813 21.71898438 -12.52734375 20.84375 C-14.93595223 17.66402392 -15.77960617 16.10382085 -15.6015625 12.10546875 C-13.8249867 9.57749874 -12.2902188 7.76671546 -10.1015625 5.66796875 C-9.58335937 5.11431641 -9.06515625 4.56066406 -8.53125 3.99023438 C-5.55894835 1.05087696 -4.31260298 0.12629098 0 0 Z " fill="#FFBD43" transform="translate(239.6015625,66.89453125)"/>
<path d="M0 0 C2.14966707 1.65667676 3.96950134 3.22958335 5.875 5.125 C6.38546875 5.58648437 6.8959375 6.04796875 7.421875 6.5234375 C10.19612182 9.25269654 10.99200093 10.63524246 11.078125 14.5625 C9.89470919 18.33570984 8.68222472 20.12487138 5.875 22.875 C5.12992188 23.63554687 4.38484375 24.39609375 3.6171875 25.1796875 C0.20934731 27.54991665 -1.84072701 28.12180084 -6 28 C-8.59326922 26.53239289 -10.47441914 24.60164671 -12.5 22.4375 C-13.04914063 21.91091797 -13.59828125 21.38433594 -14.1640625 20.84179688 C-16.7115873 18.22706351 -17.96907044 16.62334949 -18.15234375 12.9296875 C-16.72346829 9.29695328 -14.89280479 7.36349836 -12.0625 4.6875 C-11.16660156 3.82511719 -10.27070312 2.96273438 -9.34765625 2.07421875 C-5.84448774 -1.0209268 -4.45794592 -1.43517917 0 0 Z " fill="#F39A0B" transform="translate(119,359)"/>
<path d="M0 0 C3.82287261 1.07946949 6.17103426 3.57195932 8.87890625 6.33203125 C9.43707031 6.85410156 9.99523437 7.37617188 10.5703125 7.9140625 C13.16828811 10.51203811 14.47277592 12.04656353 14.6484375 15.7734375 C13.25606155 19.34229191 11.5424559 21.33422973 8.81640625 24.01953125 C7.96691406 24.88191406 7.11742187 25.74429687 6.2421875 26.6328125 C3.0623441 29.04150985 1.50321907 29.89553389 -2.49609375 29.70703125 C-4.98417021 27.88486333 -6.80101909 26.29522218 -8.87109375 24.08203125 C-9.68900391 23.27958984 -9.68900391 23.27958984 -10.5234375 22.4609375 C-12.73188743 20.18606803 -14.33421763 18.28030525 -15.203125 15.203125 C-14.12166214 11.38514288 -11.58642 9.07466138 -8.80859375 6.39453125 C-8.27814453 5.84474609 -7.74769531 5.29496094 -7.20117188 4.72851562 C-4.94408039 2.49911852 -3.08123423 0.87277527 0 0 Z " fill="#FFBF42" transform="translate(227.49609375,392.29296875)"/>
<path d="M0 0 C3.82287261 1.07946949 6.17103426 3.57195932 8.87890625 6.33203125 C9.43707031 6.85410156 9.99523437 7.37617188 10.5703125 7.9140625 C13.16828811 10.51203811 14.47277592 12.04656353 14.6484375 15.7734375 C13.25606155 19.34229191 11.5424559 21.33422973 8.81640625 24.01953125 C7.96691406 24.88191406 7.11742187 25.74429688 6.2421875 26.6328125 C3.0623441 29.04150985 1.50321907 29.89553389 -2.49609375 29.70703125 C-4.98417021 27.88486333 -6.80101909 26.29522218 -8.87109375 24.08203125 C-9.68900391 23.27958984 -9.68900391 23.27958984 -10.5234375 22.4609375 C-12.73188743 20.18606803 -14.33421763 18.28030525 -15.203125 15.203125 C-14.12166214 11.38514288 -11.58642 9.07466138 -8.80859375 6.39453125 C-8.27814453 5.84474609 -7.74769531 5.29496094 -7.20117188 4.72851562 C-4.94408039 2.49911852 -3.08123423 0.87277527 0 0 Z " fill="#F39B0A" transform="translate(227.49609375,153.29296875)"/>
<path d="M0 0 C3.12291165 1.68012647 5.39164837 3.78329674 7 7 C7.51093875 11.05831354 7.91678528 15.19576657 6.0234375 18.921875 C2.82383199 22.88703029 0.08894374 24.72752908 -4.875 25.375 C-9.55003381 24.81399594 -12.53032221 22.63336228 -15.6484375 19.16796875 C-18.02227768 15.36021932 -17.64597413 11.33223952 -17 7 C-12.81960161 0.08071991 -7.64979987 -1.19973569 0 0 Z " fill="#013E68" transform="translate(128,80)"/>
<path d="M0 0 C2.85604827 1.52400132 4.51562108 3.1152636 6 6 C6.98088995 11.19339408 6.89209484 15.43883403 4.25 20.0625 C0.86921671 22.97373005 -0.8726082 23.89561187 -5.375 24.3125 C-10.35852994 23.88288535 -13.53679513 22.65829885 -16.875 18.875 C-18.45916485 14.82657871 -18.81470192 11.2847286 -18 7 C-13.97690053 -0.53532916 -7.79123651 -2.23375693 0 0 Z " fill="#003E68" transform="translate(129,117)"/>
<path d="M0 0 C2.46884563 1.15531229 4.81162614 2.36297902 7.1875 3.6875 C7.83525391 4.04005859 8.48300781 4.39261719 9.15039062 4.75585938 C13.46589913 7.1140843 17.73606679 9.55003578 22 12 C22 12.33 22 12.66 22 13 C20.88625 13.18175781 19.7725 13.36351562 18.625 13.55078125 C17.08329796 13.8044726 15.54163416 14.05839648 14 14.3125 C13.19071045 14.44495117 12.3814209 14.57740234 11.54760742 14.71386719 C7.51373066 15.38231348 3.49466542 16.08400713 -0.51171875 16.90234375 C-1.21619141 17.04438232 -1.92066406 17.1864209 -2.64648438 17.33276367 C-4.58257347 17.72855031 -6.51599031 18.13734374 -8.44921875 18.546875 C-12.24726665 19.03155438 -15.26481767 18.80138314 -19 18 C-21 16.375 -21 16.375 -22 14 C-21.88538635 10.73351109 -21.76330515 8.17191461 -19.94921875 5.38671875 C-16.92786881 3.23726138 -13.52412096 2.93313023 -9.9375 2.375 C-4.82119557 1.68333359 -4.82119557 1.68333359 0 0 Z " fill="#F39A0B" transform="translate(120,245)"/>
<path d="M0 0 C1.00804687 0.21785156 2.01609375 0.43570313 3.0546875 0.66015625 C10.64229681 2.46344522 10.64229681 2.46344522 13 6 C13.51770105 10.06765109 13.62632659 12.13610125 11.1875 15.5 C3.09403924 19.30868742 -8.75782528 15.05981476 -17.1875 13.4375 C-18.42564453 13.20353516 -19.66378906 12.96957031 -20.93945312 12.72851562 C-23.96054425 12.15695784 -26.98065615 11.58070458 -30 11 C-20.80048654 3.55161344 -12.23404208 -3.15659686 0 0 Z " fill="#F39B0B" transform="translate(234,247)"/>
<path d="M0 0 C0.33 0 0.66 0 1 0 C3.18714733 21.69762316 3.18714733 21.69762316 -3.19433594 29.57568359 C-10.84425968 37.7656804 -10.84425968 37.7656804 -15.875 38.3125 C-19 38 -19 38 -21.375 36.4375 C-23.6626917 33.00596245 -23.50385497 31.08122529 -23 27 C-21.37796394 24.28482032 -19.3004031 22.09570695 -17.125 19.8125 C-15.93369954 18.50629839 -14.74361107 17.19899046 -13.5546875 15.890625 C-12.6589502 14.91899414 -12.6589502 14.91899414 -11.74511719 13.92773438 C-9.1448609 11.05537516 -6.6961552 8.0660937 -4.25 5.0625 C-2.85612427 3.35612632 -1.447606 1.66103509 0 0 Z " fill="#F39B0B" transform="translate(164,300)"/>
<path d="M0 0 C0.94101563 0.54269531 1.88203125 1.08539063 2.8515625 1.64453125 C4.10932463 2.36727516 5.36713997 3.08992648 6.625 3.8125 C7.55119141 4.34713867 7.55119141 4.34713867 8.49609375 4.89257812 C9.10839844 5.24384766 9.72070312 5.59511719 10.3515625 5.95703125 C10.96273926 6.3113623 11.57391602 6.66569336 12.20361328 7.03076172 C14.20215693 8.15354639 14.20215693 8.15354639 17.28125 9.30859375 C20.94250296 11.58635601 21.74354125 14.28989436 22.875 18.25 C23.19210938 19.21486328 23.19210938 19.21486328 23.515625 20.19921875 C24.86554973 24.55579402 25.33048784 28.45719259 25 33 C23.4375 35.4375 23.4375 35.4375 21 37 C17.5 37.5625 17.5 37.5625 14 37 C10.55650789 33.46090073 8.99904482 29.90852887 7.421875 25.2734375 C7.20557434 24.64394196 6.98927368 24.01444641 6.76641846 23.36587524 C6.3147115 22.04471129 5.86789588 20.72186572 5.42578125 19.39746094 C4.74841995 17.37027125 4.05522612 15.34903347 3.359375 13.328125 C0 3.45346374 0 3.45346374 0 0 Z " fill="#F39B0A" transform="translate(198,290)"/>
<path d="M0 0 C2.390625 1.76171875 2.390625 1.76171875 5 4 C5.81082031 4.65613281 6.62164062 5.31226563 7.45703125 5.98828125 C13.32564083 11.779032 14.50928913 15.86629562 14.62182617 23.9909668 C14.53497522 28.6705533 14.34421509 33.332208 14 38 C-9.48167698 14.7685718 -9.48167698 14.7685718 -10.3125 7.125 C-10 4 -10 4 -8.375 1.625 C-5.26965639 -0.49970879 -3.6986604 -0.60386292 0 0 Z " fill="#F39B0B" transform="translate(151,196)"/>
<path d="M0 0 C1.34146524 4.02439571 0.26902551 5.75016898 -1.16796875 9.71484375 C-1.52209587 10.69306847 -1.52209587 10.69306847 -1.88337708 11.6910553 C-2.38580503 13.07038916 -2.89298717 14.44799917 -3.40454102 15.82397461 C-4.18140998 17.92106056 -4.93627537 20.02516668 -5.68945312 22.13085938 C-6.18097511 23.47183747 -6.67377306 24.8123487 -7.16796875 26.15234375 C-7.61422607 27.36913818 -8.0604834 28.58593262 -8.52026367 29.83959961 C-10.00386458 33.00825392 -11.27857955 34.82980351 -14 37 C-17.60146865 37.60024477 -19.27859404 37.45562482 -22.375 35.5 C-24.73934443 31.86254704 -24.65072538 29.12764039 -24 25 C-23.84789063 23.92878906 -23.69578125 22.85757812 -23.5390625 21.75390625 C-21.93536823 15.03751694 -20.16210947 11.46761423 -14.4375 7.65234375 C-9.75805436 4.83990277 -4.93396154 2.33420735 0 0 Z " fill="#F39B0A" transform="translate(147,290)"/>
<path d="M0 0 C2 1.625 2 1.625 3 4 C3 7.5 3 7.5 2 11 C-2.5222776 15.3818342 -8.3597117 18.18852853 -13.8125 21.25 C-14.79154297 21.80429688 -15.77058594 22.35859375 -16.77929688 22.9296875 C-19.18400733 24.29040171 -21.5909291 25.64702556 -24 27 C-25 25 -25 25 -24.875 22.0625 C-24.73477369 19.06645515 -24.73477369 19.06645515 -26.1875 17.1875 C-28.42031739 15.72461964 -30.37344067 15.35494045 -33 15 C-28.27389393 10.90204727 -23.00302833 7.83588742 -17.625 4.6875 C-16.70460937 4.12482422 -15.78421875 3.56214844 -14.8359375 2.98242188 C-9.41448374 -0.18138364 -6.126738 -1.98027811 0 0 Z " fill="#F39B0B" transform="translate(259,213)"/>
<path d="M0 0 C0.75023437 0.82628906 1.50046875 1.65257812 2.2734375 2.50390625 C4.82969172 5.41864249 4.82969172 5.41864249 8.625 4.9375 C12.09325276 4.16299902 12.09325276 4.16299902 15 2 C15.12381526 6.3415346 15.21443558 10.68212837 15.2746582 15.02490234 C15.29976737 16.50132146 15.33386255 17.97761668 15.37719727 19.45361328 C15.438018 21.5787614 15.46624209 23.70226394 15.48828125 25.828125 C15.51446533 27.1059082 15.54064941 28.38369141 15.56762695 29.70019531 C15 33 15 33 12.69604492 35.44824219 C10 37 10 37 6.375 37 C2.55148346 35.86710621 1.86219063 35.41766752 0 32 C-0.34057617 28.60839844 -0.34057617 28.60839844 -0.29296875 24.609375 C-0.28872391 23.90476135 -0.28447906 23.20014771 -0.28010559 22.47418213 C-0.26336538 20.23239288 -0.22572404 17.99151569 -0.1875 15.75 C-0.17244704 14.22657552 -0.1587597 12.70313689 -0.14648438 11.1796875 C-0.11347791 7.45283059 -0.06172854 3.72650437 0 0 Z " fill="#F39A0B" transform="translate(165,332)"/>
<path d="M0 0 C4.52546082 1.34087728 4.52546082 1.34087728 6.375 4 C6.71557617 7.1862793 6.71557617 7.1862793 6.66796875 11.07421875 C6.66372391 11.7580513 6.65947906 12.44188385 6.65510559 13.1464386 C6.63833353 15.32719561 6.60068657 17.50702309 6.5625 19.6875 C6.54745114 21.16730435 6.53376308 22.6471232 6.52148438 24.12695312 C6.48843569 27.75160336 6.43666446 31.37571094 6.375 35 C5.60414063 34.51015625 4.83328125 34.0203125 4.0390625 33.515625 C1.10775931 31.84796278 -0.31937954 31.65203995 -3.625 32 C-5.11 32.495 -5.11 32.495 -6.625 33 C-6.955 33.99 -7.285 34.98 -7.625 36 C-7.955 36 -8.285 36 -8.625 36 C-8.74900035 31.67677539 -8.83952256 27.35450398 -8.8996582 23.0300293 C-8.92473644 21.56044475 -8.95880856 20.09098413 -9.00219727 18.62182617 C-9.06315499 16.50408319 -9.09127316 14.38799424 -9.11328125 12.26953125 C-9.13946533 10.99698486 -9.16564941 9.72443848 -9.19262695 8.41333008 C-8.27180772 2.87613711 -5.67267854 0 0 0 Z " fill="#F39A0B" transform="translate(173.625,165)"/>
<path d="M0 0 C2.85253906 1.25341797 2.85253906 1.25341797 5.765625 2.9921875 C6.82007812 3.61480469 7.87453125 4.23742187 8.9609375 4.87890625 C10.04632813 5.53761719 11.13171875 6.19632813 12.25 6.875 C13.35085937 7.52597656 14.45171875 8.17695313 15.5859375 8.84765625 C23.65596505 13.65596505 23.65596505 13.65596505 26 16 C24.2984375 16.4640625 24.2984375 16.4640625 22.5625 16.9375 C19.21224901 17.62924531 19.21224901 17.62924531 18 19 C17.76924918 20.34747084 17.58846937 21.70377565 17.4375 23.0625 C17.293125 24.361875 17.14875 25.66125 17 27 C10.95702094 25.39655614 5.97953264 22.21694887 0.6875 19 C-0.23095703 18.4534375 -1.14941406 17.906875 -2.09570312 17.34375 C-8.87132937 13.25734127 -8.87132937 13.25734127 -10 11 C-10.35872645 7.12575435 -10.56710729 4.85066094 -8.375 1.5625 C-5.29087041 -0.46653263 -3.65495018 -0.32393371 0 0 Z " fill="#F39A0A" transform="translate(94,212)"/>
<path d="M0 0 C24.99270738 12.98541477 24.99270738 12.98541477 27 17 C27.38503376 20.54231061 27.41935959 22.36257342 25.4375 25.375 C22.87961249 27.08025834 21.27468342 27.52874399 18.21801758 27.45458984 C13.0747135 26.40045311 8.5936119 23.26604993 4.125 20.625 C3.06796875 20.02171875 2.0109375 19.4184375 0.921875 18.796875 C-6.84889241 14.30221519 -6.84889241 14.30221519 -8 12 C-7.21625 11.71125 -6.4325 11.4225 -5.625 11.125 C-2.90328368 10.15087746 -2.90328368 10.15087746 -1 8 C-0.54188325 6.02764667 -0.54188325 6.02764667 -0.375 3.875 C-0.189375 1.956875 -0.189375 1.956875 0 0 Z " fill="#F39B0B" transform="translate(235,294)"/>
<path d="M0 0 C0.66 0.33 1.32 0.66 2 1 C1.7525 1.9075 1.505 2.815 1.25 3.75 C0.6380884 7.0327558 0.6380884 7.0327558 2.6875 9.25 C4.75077212 10.81139512 6.68104439 11.88690131 9 13 C5.18379069 15.36224433 1.34459982 17.68429918 -2.5 20 C-3.57765625 20.66773438 -4.6553125 21.33546875 -5.765625 22.0234375 C-11.78430469 25.61996561 -15.93498469 28.05645089 -23 27 C-25 26 -25 26 -26 24 C-26.70779977 18.42607683 -26.70779977 18.42607683 -26 16 C-21.59293741 11.60217653 -15.68379204 8.75732996 -10.3125 5.6875 C-8.86907227 4.84348633 -8.86907227 4.84348633 -7.39648438 3.98242188 C-6.47802734 3.45583984 -5.55957031 2.92925781 -4.61328125 2.38671875 C-3.77579346 1.90420654 -2.93830566 1.42169434 -2.07543945 0.92456055 C-1.39054443 0.61945557 -0.70564941 0.31435059 0 0 Z " fill="#F39A0A" transform="translate(110,294)"/>
<path d="M0 0 C4.16636416 1.38878805 7.36027521 3.09555042 9.375 7.125 C9.97373168 12.39383876 8.62900021 15.0096468 5.375 19.125 C2.17082279 20.7270886 -1.14839432 20.61785215 -4.625 20.125 C-8.06812714 18.0005173 -9.34117547 16.97647359 -10.625 13.125 C-11.15043317 9.64400523 -11.43252183 7.24402877 -9.30859375 4.30078125 C-6.16146768 1.28038508 -4.44587655 0.15330609 0 0 Z " fill="#F7F0F3" transform="translate(348.625,232.875)"/>
<path d="M0 0 C3.5542299 0.64622362 5.59136218 1.42940796 8.4375 3.625 C10.92136059 7.35079089 10.8179212 9.21211402 10.4375 13.625 C8.2375 18.225 8.2375 18.225 5.4375 19.625 C1.41934256 20.18683086 -2.79281803 20.7540024 -6.33203125 18.49609375 C-8.50364358 16.09918447 -9.51932697 13.80946658 -10.25 10.6875 C-8.95997233 4.94101313 -5.88621779 1.03266979 0 0 Z " fill="#FEF2F1" transform="translate(59.5625,174.375)"/>
<path d="M0 0 C10.23 0 20.46 0 31 0 C30.01 3.96 29.02 7.92 28 12 C18.17611608 9.46480415 9.19186912 5.21544325 0 1 C0 0.67 0 0.34 0 0 Z " fill="#FEDD8C" transform="translate(153,464)"/>
<path d="M0 0 C3.75999106 0.93999776 5.2473603 2.51105689 7.5 5.625 C7.5 9.16861243 7.15850044 11.49091591 5.375 14.5625 C2.31547541 16.2962306 -0.06817525 16.04645216 -3.5 15.625 C-5.9375 14 -5.9375 14 -7.5 11.625 C-8.0625 8.6875 -8.0625 8.6875 -7.5 5.625 C-5.20985284 2.6150923 -3.70864386 0.92716097 0 0 Z " fill="#FFF4F0" transform="translate(35.5,227.375)"/>
<path d="M0 0 C2.375 1 2.375 1 4 3 C4.45352711 6.17468977 4.69511624 7.98984447 4 11 C1.875 13.5625 1.875 13.5625 -1 15 C-4.15548924 14.93689022 -6.13769198 14.48864121 -8.875 12.9375 C-10.71751909 9.76427268 -10.66053097 6.56241421 -10 3 C-7.19663749 -0.45029232 -4.26211439 -0.5327643 0 0 Z " fill="#013E68" transform="translate(126,158)"/>
<path d="M0 0 C2.375 1 2.375 1 4 3 C4.45352711 6.17468977 4.69511624 7.98984447 4 11 C1.875 13.5625 1.875 13.5625 -1 15 C-4.18409977 14.936318 -6.14932332 14.51040601 -8.875 12.875 C-10.70099685 9.83167192 -10.42460581 7.45750445 -10 4 C-7.24846472 -0.12730291 -4.82246105 -0.70327557 0 0 Z " fill="#F8F1F3" transform="translate(322,288)"/>
<path d="M0 0 C3.59391114 1.33488128 6.75490696 2.96022723 10 5 C6.99382731 8.00617269 4.17618402 7.59585316 0 8 C0 5.36 0 2.72 0 0 Z " fill="#FE483F" transform="translate(110,240)"/>
<path d="M0 0 C3.3 0.33 6.6 0.66 10 1 C6.80009492 3.74277578 3.99500618 5.6302836 0 7 C0 4.69 0 2.38 0 0 Z " fill="#FE4640" transform="translate(110,287)"/>
</svg>
